<?xml version="1.0" encoding="UTF-8"?>
<svg width="47px" height="70px" viewBox="0 0 47 70" version="1.1" xmlns="http://www.w3.org/2000/svg" xmlns:xlink="http://www.w3.org/1999/xlink">
    <title>编组</title>
    <g id="控件" stroke="none" stroke-width="1" fill="none" fill-rule="evenodd">
        <g id="顶部导航" transform="translate(-30, -5)" fill="#1944B4">
            <g id="编组" transform="translate(30, 5)">
                <path d="M38.1006613,33.7001104 C43.0031346,34.7953392 46.6702474,39.1731176 46.6666667,44.4072717 C46.6666667,45.9439083 46.3472978,47.4119809 45.7829199,48.7263452 C45.7094612,48.5708442 45.654815,48.2638754 45.6400337,47.9564584 C45.605096,47.2865046 45.6848256,46.6510568 45.6848256,45.9564559 C45.6848256,43.8686199 45.40622,41.8484515 44.1027757,40.3938227 C41.9953169,38.0389015 39.3445323,40.3629018 39.2016461,40.5493237 C39.05876,40.7357456 38.8724257,40.9584661 38.6462266,40.8464337 C38.5208093,40.7841436 38.5082675,40.6425347 38.527976,40.5170584 C38.5481323,40.3902377 38.605018,40.2705871 38.688331,40.1724467 C40.3236832,38.2257716 42.6103097,38.4081603 42.6810809,38.4144341 C42.6474869,38.3799281 42.6165805,38.3436296 42.5829866,38.3091237 C42.0338379,37.7408953 41.6123461,37.1354721 40.9512177,36.6949607 C40.3944544,36.3171874 39.6728569,36.0061855 38.9853013,35.8470994 C38.7134144,35.7839132 38.4312255,35.7489591 38.140526,35.7467184 C38.1279843,35.7467184 38.1154426,35.745374 38.1033488,35.745374 C35.9497543,35.745374 34.203766,37.4921833 34.203766,39.6454462 C34.203766,40.8948317 34.7927795,42.0061932 35.7060863,42.721408 C36.3260062,43.2049399 37.095531,43.5069793 37.9340354,43.5432778 C38.0706507,43.5482072 38.2023389,43.6163229 38.2659434,43.7382142 C38.3989753,43.9896149 38.0151087,44.0254653 38.0151087,44.0254653 C37.0269994,44.0254653 36.1096613,43.7184965 35.3531262,43.1959773 C34.1253802,42.3494605 33.3213656,40.9333708 33.3213656,39.3286186 C33.3213656,39.1094832 33.3374907,38.8934847 33.3661575,38.6819675 C33.4951582,37.7444803 33.9014207,36.8952747 34.4980488,36.219047 C34.6360079,35.8175229 34.7542585,35.4056918 34.8536965,34.9866905 C34.9714992,34.4856816 35.0624267,33.9734694 35.1233437,33.4513984 C35.182917,32.9391862 35.2138234,32.4184596 35.2138234,31.8887704 C35.2138234,29.0789976 34.3488918,26.470435 32.8703112,24.3171721 C35.7656596,26.5201774 37.7365031,29.8757721 38.1006613,33.7001104" id="Fill-12"></path>
                <path d="M44.5961585,50.8124334 C44.6010856,51.0136436 44.604669,51.2166464 44.604669,51.4192009 C44.604669,51.6414732 44.6010856,51.8628493 44.5948147,52.0855697 C44.5925752,52.1527892 44.5885439,52.2200086 44.5863043,52.2867799 C44.5800334,52.4422809 44.5751063,52.5977819 44.5661479,52.7519385 C44.5625646,52.8240874 44.55495,52.8962362 44.5500229,52.9683851 C44.5401686,53.1176123 44.5316582,53.2677357 44.5191164,53.4156185 C44.5115018,53.500315 44.5016476,53.5850115 44.4931371,53.6683636 C44.4805954,53.8050431 44.4680537,53.9417227 44.4519286,54.0784022 C44.4434181,54.1554805 44.4322202,54.2312144 44.4223659,54.3073964 C44.4048971,54.4512461 44.3874283,54.5946475 44.3663761,54.7384972 C44.3574177,54.7985465 44.3475635,54.8581478 44.339053,54.917749 C44.3139695,55.076835 44.2906778,55.235921 44.2629068,55.3950071 C44.2557401,55.436235 44.2467817,55.4770148 44.239615,55.5182427 C44.2073648,55.6961502 44.1746667,55.8727133 44.140177,56.0479319 C44.1352499,56.0725791 44.128979,56.0963299 44.1240519,56.1200808 C44.0841871,56.3100878 44.056864,56.5005429 43.9932595,56.684276 C43.9489156,56.8124411 43.8830715,56.936573 43.8230503,57.0584643 C43.8221545,57.0598087 43.8221545,57.0611531 43.8208107,57.0624974 C43.7612375,57.185285 43.6989768,57.3071762 43.636716,57.4290675 C43.6353723,57.4317563 43.6353723,57.4326525 43.6344764,57.4353413 C43.5708719,57.5585769 43.5063716,57.6813645 43.4405275,57.8032557 C43.1807345,58.2894764 42.9034726,58.7631494 42.6114295,59.2242748 C42.6091899,59.228308 42.6078461,59.2305486 42.6051586,59.2332374 C42.0174889,60.161762 41.3675584,61.0409923 40.6607423,61.8673434 L40.5908669,61.9520399 C40.5263666,62.0277738 40.4605225,62.1039558 40.3919909,62.177001 L40.391095,62.177001 C39.8526964,62.7864573 39.2838393,63.3632001 38.6858674,63.9103664 C38.6845237,63.9117108 38.6822841,63.9139514 38.6809403,63.9152958 C38.483408,64.0954439 38.284532,64.2706626 38.0820726,64.4436407 C38.0784893,64.4458813 38.0758018,64.4499145 38.0722184,64.4521551 C37.8684153,64.6264775 37.6619246,64.7954224 37.4531944,64.9621266 C37.4505068,64.963471 37.4482672,64.9657117 37.4469235,64.9670561 C37.3452459,65.0477194 37.2417766,65.1274865 37.1387552,65.2068054 C37.1351719,65.2094942 37.1311406,65.2130792 37.1275572,65.215768 C36.8095348,65.4595505 36.4865852,65.6930261 36.1582606,65.9193315 C36.1533334,65.9229166 36.1484063,65.9256054 36.144823,65.9291904 C36.0476246,65.9950655 35.9495303,66.0609405 35.851436,66.1259193 C35.8375506,66.1357782 35.8227692,66.145637 35.8079879,66.1554959 C35.7098936,66.2204747 35.6104556,66.2850053 35.5096739,66.3481916 C35.4957884,66.3580505 35.4823508,66.367013 35.4684653,66.3755275 C35.3717148,66.4378175 35.2749643,66.4974188 35.1764221,66.5583644 C35.1594012,66.5682233 35.1432761,66.5794265 35.1258073,66.5892853 C35.0263693,66.650231 34.9255875,66.7102803 34.8248057,66.7698816 C34.8100244,66.7797404 34.7952431,66.7882549 34.779118,66.7985619 C34.6868467,66.8532337 34.5936795,66.9052167 34.5005124,66.9585442 C34.4758768,66.9724362 34.4521371,66.9872245 34.4283974,67.0011165 C34.3280636,67.0571327 34.225938,67.1127008 34.1242604,67.168717 C34.1081353,67.1776796 34.0915623,67.1875384 34.0745414,67.1960529 C33.9863014,67.244899 33.8980613,67.2906082 33.8098213,67.33811 C33.778467,67.3542426 33.7475605,67.3703753 33.7166541,67.386508 C33.623487,67.4362504 33.5289761,67.483304 33.4344652,67.5308057 C33.4084859,67.5442496 33.3820586,67.5581416 33.3560793,67.5702411 C33.2678393,67.6141578 33.1795993,67.6576264 33.0913592,67.6997506 C33.0577653,67.7158833 33.0255151,67.7320159 32.9919212,67.7481486 C32.9036812,67.7902728 32.8140974,67.8315007 32.7249615,67.8736249 C32.6913676,67.8888613 32.6577736,67.904994 32.6255235,67.9197822 C32.5296688,67.9632508 32.4329183,68.005375 32.3357199,68.0479473 C32.3097406,68.0604949 32.2824175,68.0725944 32.2550945,68.0837977 C32.1731253,68.1200962 32.0898124,68.1546022 32.0078432,68.1895563 C31.9657388,68.2070333 31.9231865,68.2254066 31.8810821,68.2428837 C31.7950817,68.2791822 31.7095291,68.3127919 31.6226328,68.3472979 C31.5841118,68.3634306 31.544247,68.3800114 31.505726,68.3947996 C31.4161422,68.43065 31.3270063,68.4642597 31.2374225,68.4978695 C31.2002452,68.5117615 31.1639638,68.5265498 31.1267865,68.5399936 C31.0533278,68.5673296 30.9798691,68.5937692 30.9068583,68.6211051 C30.8522122,68.6408228 30.7984619,68.6609887 30.7438158,68.679362 C30.6793155,68.7031128 30.6134714,68.7255193 30.5476273,68.7479258 C30.4853665,68.7689879 30.4235537,68.7913944 30.3599492,68.8124565 C30.2752925,68.8397924 30.1910838,68.8671283 30.1050833,68.8944642 C30.0616352,68.9092525 30.018187,68.9231445 29.9733951,68.9379328 C29.8927697,68.963028 29.8121443,68.9876752 29.7297272,69.011426 C29.6813519,69.0262143 29.6329767,69.042347 29.5832577,69.056239 C29.5138302,69.0773011 29.4439549,69.0970188 29.3731837,69.1171846 C29.3136105,69.1346617 29.2526935,69.1516906 29.1917765,69.1691677 C29.1075677,69.1915741 29.022911,69.2139806 28.9382543,69.2363871 C28.8925666,69.2489347 28.8450872,69.2614824 28.7980557,69.2735819 C28.7048885,69.2986771 28.6103776,69.3210836 28.5158667,69.3443863 C28.4786895,69.3533489 28.4401684,69.3632078 28.4016474,69.3717223 C28.3143032,69.3932325 28.2251673,69.4129502 28.1369273,69.4326679 C28.0921354,69.4429749 28.0486872,69.4541781 28.0038953,69.464037 C27.9080407,69.485099 27.8135297,69.5048168 27.718123,69.5236382 C27.679602,69.5321527 27.6410809,69.5411153 27.6025599,69.5482853 C27.508049,69.5671068 27.4135381,69.5859282 27.3176834,69.6029571 C27.2782666,69.6105753 27.2397455,69.6181936 27.1998807,69.6253636 C27.087901,69.6468738 26.9763692,69.6652472 26.8630457,69.6840686 C26.8406497,69.6876536 26.8182538,69.6925831 26.7958578,69.6966162 C26.7165761,69.7087157 26.6381903,69.7212634 26.5584607,69.7324666 C26.501575,69.7409811 26.4455852,69.7512881 26.3895953,69.7584581 C26.3112095,69.7710058 26.2328236,69.7808646 26.1548857,69.7907235 C26.0962083,69.7996861 26.0393226,69.8068561 25.981989,69.8144743 C25.8852385,69.827022 25.7880401,69.8382252 25.6899458,69.8494284 C25.6514248,69.8543579 25.61156,69.8592873 25.5716952,69.8628723 C25.4888302,69.8731793 25.4055173,69.8803494 25.3222043,69.889312 C25.268902,69.8942414 25.2138079,69.9005152 25.1605056,69.9054446 C25.074953,69.9126147 24.9889526,69.9188885 24.9034001,69.9265067 C24.8523373,69.9300918 24.8003787,69.9350212 24.7479722,69.9390544 C24.6758572,69.9439838 24.6037423,69.9475688 24.5307315,69.9524983 C24.4657832,69.9560833 24.3999391,69.9610127 24.334095,69.9650459 C24.2758656,69.9686309 24.2162923,69.9699753 24.1567191,69.9735604 C24.0783333,69.9775935 23.9986037,69.9811786 23.919322,69.9834192 C23.8633322,69.986108 23.8073423,69.9874524 23.7513524,69.9887968 C23.5287367,69.9946224 23.3079126,70 23.0852969,70 C10.3554392,70 0,59.6383466 0,46.9025024 C0,45.1220833 0.203803141,43.3465937 0.606482314,41.6248796 C1.39795517,38.2343308 2.98627591,35.0104862 5.19944365,32.3001982 C5.72395679,31.6584766 6.29057431,31.0369208 6.88585865,30.4489747 C9.31895461,27.470257 11.2611314,22.0617804 11.9845205,18.306006 C12.0638022,20.404597 12.8454208,24.2101139 14.6003674,25.3877986 C15.3609339,25.8986664 16.2057091,26.2392449 17.1105055,26.3983309 L17.123943,26.3996753 C17.5902267,26.3759244 18.0721875,26.4059491 18.5532525,26.4915419 C19.8656552,26.7241212 21.0535363,27.3532952 21.9919266,28.3105001 C22.3471264,28.6721407 22.6579822,29.0750092 22.9177752,29.5079024 C23.1377034,29.8744725 23.3191106,30.259864 23.4593092,30.6591475 C23.6008516,31.0579829 23.7029772,31.4720546 23.7638942,31.8973297 C23.8086861,32.2056428 23.831082,32.5153004 23.831082,32.8186842 C23.831082,33.1677772 23.8010714,33.5235921 23.742842,33.8767183 C23.7276127,33.9672404 23.7105918,34.0582108 23.6917792,34.1487329 C23.6890917,34.0380449 23.6832687,33.9201868 23.6743104,33.7857479 C23.6120496,32.9280278 23.3871943,32.1048137 23.0055673,31.3389601 C22.719795,30.7658023 22.3533972,30.2388019 21.9148846,29.7714027 C21.3106418,29.1287848 20.5975548,28.6237427 19.7957798,28.2683759 C18.9657859,27.9013577 18.0833855,27.7149358 17.173662,27.7149358 C16.9129732,27.7149358 16.6406384,27.7324128 16.3638245,27.7673669 C16.2805116,27.7584044 16.2057091,27.7534749 16.1335941,27.7534749 C15.73629,27.7534749 15.3483921,27.8690924 15.0142446,28.0868834 C14.5407942,28.3951966 14.2111258,28.8885873 14.1067607,29.4420274 C14.0919794,29.5204501 14.0821252,29.6033541 14.0758543,29.6956688 L14.0745105,29.7189715 C14.0722709,29.75527 14.0695834,29.7911204 14.0695834,29.8274189 C14.0695834,30.2759966 14.2138133,30.7062011 14.4749501,31.0593272 C13.7116962,30.6304672 12.8543792,30.4055061 11.9692913,30.4055061 L11.9397286,30.4068505 C11.8416344,30.4068505 11.7269671,30.4090911 11.611404,30.41895 C11.1321307,30.4624186 10.5032524,30.6031313 10.1166983,30.7523584 C9.89408259,30.8392956 9.67684188,30.9414691 9.4743825,31.0543978 C6.76133717,32.4131269 4.4859087,34.6439162 3.06555757,37.3367272 C1.95740599,39.4375589 1.37197587,41.8113016 1.37197587,44.2020732 C1.37197587,46.7582046 2.0353439,49.2757969 3.29175667,51.481491 L3.34550694,51.4501219 L3.40508017,51.4317486 C2.92894228,49.9721904 2.68930562,48.4489977 2.68930562,46.9025024 C2.68930562,42.9697167 4.22521984,39.2847467 7.01620308,36.5260607 C8.11987547,35.4344169 9.37987159,34.5332282 10.7630454,33.8466936 C10.8611397,33.7969512 10.959234,33.7498976 11.058672,33.7037402 C11.1491516,33.661616 11.2423188,33.6217325 11.3345901,33.581849 C11.4376114,33.5383804 11.5406328,33.4935674 11.6414146,33.4451694 C12.1135212,33.2202083 12.8781189,33.0176537 13.419653,32.9714964 C14.2263551,32.9056213 15.0536615,33.170466 15.6328207,33.6813337 C16.3373973,34.3028895 16.7414202,35.1995969 16.7414202,36.1393248 C16.7414202,36.6389893 16.632128,37.1202806 16.4157831,37.5666177 C16.2643865,37.8825491 16.0592396,38.1733852 15.8133321,38.4256822 C15.9745829,38.120954 16.0852189,37.7893381 16.1349379,37.4487596 L16.0740209,37.4384526 L16.1349379,37.4474152 C16.1586776,37.298188 16.1698756,37.1453758 16.1698756,36.9934599 C16.1698756,36.4911065 16.0466979,36.0062303 15.819155,35.5751296 C15.5929559,35.1435807 15.2637355,34.7653593 14.8512021,34.480797 C14.3455015,34.1326003 13.7538005,33.9488671 13.1388078,33.9488671 C12.4378145,33.9488671 11.7533943,34.1962347 11.2127561,34.6439162 C11.0349323,34.791799 10.8736814,34.9593995 10.7316911,35.1458214 C10.5614819,35.3698862 10.4221791,35.6172538 10.3191577,35.8794096 L10.3778351,35.9018161 L10.4051582,35.9578323 C10.5601381,35.8834428 10.7254202,35.8198084 10.8956295,35.7727547 C11.1258598,35.7091203 11.3641527,35.6746144 11.6042373,35.6692368 L11.6302166,35.6683405 C11.6441021,35.6683405 11.6561959,35.6669961 11.6700814,35.6669961 C12.3213556,35.6669961 12.9363484,35.8794096 13.4510073,36.2800375 C13.729165,36.4973804 13.9629787,36.7599843 14.1466255,37.0593349 C14.3455015,37.3851252 14.4785335,37.7481102 14.5381067,38.1249872 C14.2810012,37.6414553 13.8957909,37.2282798 13.4245801,36.9437175 C13.3291733,36.8863569 13.2248082,36.8316851 13.1177556,36.7819427 C12.822129,36.6479519 12.5099295,36.5610148 12.1869799,36.527405 C11.7968425,36.4848327 11.4187988,36.5184425 11.047474,36.6219604 C10.7666288,36.699935 10.4992212,36.8195856 10.2533136,36.9750866 C10.2147926,36.9997337 10.1762716,37.0243808 10.1390943,37.0508205 C9.67415437,37.3739219 9.31133999,37.8189147 9.08648465,38.3360563 C9.0381094,38.369666 8.9933175,38.4010351 8.94718185,38.4333004 C8.9225463,38.4516737 8.89522324,38.4691508 8.87148354,38.4879722 C8.80071234,38.539059 8.73218073,38.5896976 8.6676804,38.6407844 C8.51359626,38.7590906 8.36309548,38.8845669 8.21931349,39.0113876 C6.0097291,40.9683697 4.74346212,43.9435024 4.74346212,47.1758614 C4.74346212,50.8348399 6.43570006,54.2415214 9.16083921,56.065409 L9.19577689,56.0143222 L9.24683965,55.9780237 C8.06746895,54.3145665 7.44351779,52.3539994 7.44351779,50.3100801 C7.44351779,47.4568387 8.68156588,44.7514801 10.8409833,42.8890533 C11,42.7510294 11.146912,42.6318269 11.2911419,42.5224833 C12.2402823,41.7960652 13.3005065,41.2592059 14.4435958,40.9249012 C14.4373249,40.9284862 14.4310541,40.9334156 14.4252311,40.938345 L13.0953596,42.2038631 C11.6351437,43.879868 10.7715559,46.0259608 10.665847,48.2450987 L10.7281078,48.2473394 L10.6671908,48.256302 C11.0922659,51.1592858 12.2725324,53.9157311 14.0821252,56.2294244 C14.3504286,56.5726917 14.6424718,56.9168553 14.9492963,57.25116 C15.476497,57.8243178 16.0431145,58.3629696 16.6357113,58.8527753 C17.1862038,59.3089713 17.776561,59.736487 18.3879704,60.1218785 C19.0379009,60.5323652 19.7164981,60.8989352 20.4049496,61.2112816 C22.5881068,62.2034406 24.9208689,62.7053458 27.336496,62.7053458 C31.7332688,62.7053458 35.8935404,61.0145527 39.0527131,57.942624 C42.0860205,54.9921385 43.8853111,51.073693 44.1513749,46.8612744 C44.1563021,46.8863697 44.1625729,46.9110168 44.1675,46.9361121 C44.1836251,47.0167754 44.1970627,47.0974387 44.2122919,47.1785502 C44.2346879,47.2964083 44.2557401,47.4133701 44.2754485,47.5325726 C44.2906778,47.6172691 44.3041153,47.7019656 44.3180008,47.786214 C44.3350217,47.9018314 44.3524906,48.0161045 44.3699594,48.1317219 C44.3825011,48.2191072 44.3936991,48.3047 44.4048971,48.3907409 C44.4196784,48.5063583 44.4344598,48.6219758 44.4470015,48.7375932 C44.4568557,48.823186 44.4667099,48.9087787 44.4770121,48.996164 C44.4891059,49.1126777 44.499408,49.2296396 44.510606,49.3479458 C44.5177727,49.4321941 44.5253873,49.5168906 44.5316582,49.6002428 C44.5415124,49.7234784 44.549127,49.8453697 44.5576375,49.9681572 C44.5625646,50.0479243 44.5674917,50.1263469 44.571523,50.2056659 C44.5786897,50.341001 44.5836168,50.4767843 44.5885439,50.6121195 C44.5912314,50.6793389 44.5948147,50.745214 44.5961585,50.8124334" id="Fill-14"></path>
                <path d="M29.0911739,12.4563906 C29.7411043,12.5818669 29.8593549,12.6589452 29.7200521,12.4142664 C29.7200521,12.4142664 29.1270074,11.2527144 28.4300454,10.9968324 C27.7317397,10.7405022 27.2869562,10.8673229 27.0123818,11.0900433 C26.7373596,11.3114194 26.8430685,11.5874672 27.6049787,11.925357 C28.3668889,12.2636948 28.4398997,12.3322587 29.0911739,12.4563906 M41.3699772,10.2135018 C41.7986357,9.98361126 42.1081477,9.59060157 41.7157706,9.20655447 C41.7157706,9.20655447 41.4895716,8.89689689 40.9538604,9.28990658 C40.5498375,9.58567214 40.1847835,9.90384418 40.2568985,10.1861659 C40.3276697,10.4684875 40.9426625,10.4433923 41.3699772,10.2135018 M40.2752632,9.32844573 C41.2423203,7.83662218 43.0563922,9.17428914 42.0723142,10.0844404 C41.089132,10.9941436 40.231815,10.4595249 39.8936362,10.5182299 C39.5559053,10.5764868 39.7086456,10.8937625 38.4396911,11.4754348 C37.1711846,12.0571071 35.288581,11.8025694 34.6668695,12.0584515 C34.0644184,12.3071634 33.9089905,13.3728157 34.299128,13.387604 C34.7044947,13.4037366 34.5638481,13.4337613 35.028788,12.7933841 C35.4946238,12.1530068 35.8440006,12.5917257 35.8650528,12.7611187 C35.886105,12.9300636 35.8825216,13.8913017 36.3720971,13.5655114 C37.2504662,12.9811504 37.3351229,13.2580945 37.3687168,13.705776 C37.3946961,14.0405288 37.2392682,14.8771869 36.7747763,15.3284534 C36.7349115,15.5843354 36.6242755,16.0508384 36.3299927,16.2323309 C36.0437725,16.4075496 35.7817398,16.4958311 35.9282094,16.1202985 C36.0030118,15.9276027 36.0003243,15.7362514 36.0043556,15.5744766 C35.8847612,15.5610327 35.7580001,15.534593 35.6303432,15.5009833 C35.4722278,15.7223594 34.967871,16.4111346 34.8361829,16.0517346 C34.7703388,15.8715865 34.7116614,15.4400377 34.7887034,15.2226948 C34.6337235,15.168023 34.4894936,15.1205213 34.3698992,15.0945297 C33.8073129,14.9677091 33.1806743,15.7286332 33.1806743,15.7286332 C32.612713,15.9773451 32.800391,15.3853659 32.6440673,15.0524056 C32.4886394,14.7189971 32.3793472,14.4429493 31.6658122,14.0952007 C31.1516012,13.8424555 31.1480179,14.0279812 30.7341407,14.1870672 C30.9240584,14.4232316 31.351821,14.9430619 31.5493533,15.0882559 C31.8086984,15.2800554 31.8301985,15.4588591 31.6125099,15.4014985 C31.396165,15.3432417 30.290253,14.7987642 30.1634919,14.3587009 C30.1599086,14.3448089 30.1563252,14.3327094 30.152294,14.3188173 C30.1088458,14.3237468 30.0640539,14.3286762 30.0156787,14.3327094 C29.4687696,14.3761779 28.8103287,14.2654899 28.2338569,14.1570425 C28.4770769,14.3537715 28.8340684,14.5773881 29.2439143,14.6347487 C30.0156787,14.7400592 30.9065896,14.9403732 31.2770186,15.9674863 C31.6474476,16.993255 31.938147,17.6856153 32.4984936,17.5861305 C33.0588403,17.4866457 33.4928738,17.2791617 33.6268016,17.1097687 C33.7598335,16.9408238 33.9712513,17.4382477 33.2303933,17.8509751 C32.4913269,18.2637025 31.5390512,17.9791402 31.2532788,17.5301143 C30.9675065,17.0815365 30.8994228,16.2000656 30.3489304,15.8715865 C29.7993338,15.5444519 29.881303,15.5471407 28.9294751,15.42032 C28.0251267,15.2984287 27.05583,14.5850064 27.0356736,13.9831683 C26.9425065,13.9880977 26.8753186,14.0069191 26.8430685,14.0463545 C26.6209006,14.3161286 27.2233517,15.3643038 28.1603982,15.5870242 C29.096101,15.8084003 29.9896994,15.4749918 30.6082755,16.602486 C31.1206948,17.5350437 31.5977286,18.4003821 32.5258167,18.8404454 C32.60689,18.8368603 34.1051791,18.7611264 34.5526501,17.9428417 C35.0126629,17.1025986 34.7515262,18.4039671 34.3698992,18.7288611 C34.1450439,18.9215568 33.9712513,19.0730246 33.8158234,19.1738538 C34.6856821,19.3020189 35.1730179,19.2706498 34.8285682,19.4534867 C34.5118895,19.6215353 34.2892738,20.0512916 34.2892738,20.0512916 C33.464207,21.9562907 32.9983712,22.0620493 32.5755357,22.1673598 C32.1518043,22.2731184 32.0675956,22.2941805 32.4698268,21.4700701 C32.8716102,20.6468559 31.7294167,21.2200137 31.7294167,21.2200137 C30.1473669,21.7210227 29.9722305,21.3159135 29.9722305,21.3159135 C30.0716686,21.2997808 30.6073797,21.0698903 30.6073797,21.0698903 C31.3764566,20.7526145 31.5466658,19.9943792 30.3771493,20.066528 C29.206737,20.1373325 29.2752686,19.8191605 29.2752686,19.8191605 C29.2752686,19.8191605 29.6353955,20.1359881 30.1845441,19.575378 C30.7350366,19.0147678 29.9099698,18.8879471 28.863631,18.866885 C27.8163964,18.8453748 28.4770769,18.5859077 28.4770769,18.5859077 C30.3973057,17.4283889 29.0168193,17.3634101 27.9216574,17.5861305 C23.0518821,19.1738538 22.4651082,18.3954526 22.4651082,18.3954526 C22.4651082,18.3954526 26.4780145,17.3486218 24.9085063,16.1413606 C23.5204054,15.0761564 19.4219466,13.1810162 18.4849001,12.7535005 C20.2667218,13.5256279 21.8984907,13.1191743 22.7822349,12.9202048 C23.6968855,12.713617 22.7396826,11.925357 22.7396826,11.925357 C11.4539157,7.88502018 7.1167161,3.65781333 6.98502791,3.52740761 C12.4120144,7.74699625 22.9201939,9.88278209 24.3839932,10.179892 C25.8491362,10.4756576 25.5320096,10.1265646 25.5320096,10.1265646 C21.7668025,3.90518089 15.0117362,2.62980395 14.7183493,2.4581703 C14.4236186,2.28653665 14.6175675,2.16957481 14.6175675,2.16957481 C23.5647494,3.92624298 28.6835676,9.4489926 28.7892765,9.60807862 C28.8949854,9.76716465 29.3917275,9.73489931 29.3917275,9.73489931 C31.0732154,9.80928883 31.1153198,10.7830745 31.1054656,11.0900433 C31.0942676,11.3956677 30.9254021,11.9468672 31.1054656,11.956726 C31.2846332,11.9679293 32.2575132,11.925357 32.4277224,12.4326397 C32.5965879,12.9412668 32.7049843,12.8803212 32.7049843,12.8803212 C33.1806743,13.0071419 33.3298313,12.3407731 34.1786378,11.7864368 C34.7752659,11.3956677 36.5947128,11.6295914 37.583718,11.4445139 C38.5713793,11.2589882 39.5084259,10.4971678 39.6665413,10.3067127 C39.8255525,10.1167058 40.2752632,9.32844573 40.2752632,9.32844573" id="Fill-16"></path>
                <path d="M34.9839961,54.8418807 C33.4991447,55.9855075 31.6411767,56.6684571 29.6228537,56.6684571 C24.766516,56.6684571 20.829756,52.7293976 20.829756,47.8694317 C20.829756,44.7625489 22.4404727,42.0338876 24.8708811,40.4685707 C21.8080111,41.8860048 19.6817396,44.9839249 19.6817396,48.5819578 C19.6817396,53.5176576 23.6794166,57.518559 28.6127964,57.518559 C31.1081531,57.518559 33.3634252,56.4927902 34.9839961,54.8418807 M36.3931493,45.0126052 C38.6770882,47.4244389 39.3758418,52.0594438 36.6466714,55.614008 C33.9188448,59.1699167 28.2584925,61.487195 22.2317425,59.4979476 C16.2641177,57.5275216 13.7293442,53.0215781 13.9828663,47.9429249 C14.2359405,42.8642718 18.4042747,42.1866998 18.4042747,42.1866998 C18.4042747,42.1866998 13.1362994,49.9958068 18.6577968,54.3767221 C18.6577968,54.3767221 19.7995423,55.2644669 18.7845579,53.678088 C17.7691255,52.0903647 16.3089096,49.6462657 18.4987856,44.8212539 C20.6882136,39.9971384 25.5423117,36.2825918 25.5423117,36.2825918 C25.5423117,36.2825918 28.7780785,32.9502999 27.1924453,29.0775636 C25.6054683,25.2048273 22.1161794,24.7598345 20.1489191,22.9830005 C18.1830027,21.2066146 19.4492697,24.5980597 21.2561749,25.933486 C21.1652473,25.8900175 18.2286904,24.4649652 17.1975809,21.871639 C16.1512421,19.2370849 15.9286264,18.9820991 15.3261754,19.6498123 C14.7232764,20.3161811 15.0090487,22.9471502 15.5147493,23.5525733 C15.4466656,23.5041753 12.3112326,21.2263324 15.0726532,13.6251575 C15.0726532,13.6251575 15.9608766,12.2162379 14.8289853,12.7535453 C13.6966461,13.2908528 11.1269348,15.6291932 11.1269348,15.6291932 C11.1269348,15.6291932 11.6353229,13.6923769 14.1629297,12.2749429 C14.1629297,12.2749429 14.6489219,11.7564569 13.8982096,11.777519 C13.1474974,11.7985811 11.4973638,12.2426776 11.4973638,12.2426776 C11.4973638,12.2426776 13.0305905,10.6675019 16.7536932,9.74121794 L21.9571681,12.1951758 C21.9571681,12.1951758 22.3808995,12.7535453 21.0684968,12.7100768 C19.7574379,12.6666082 18.4772855,12.769678 17.7368754,12.3246853 C17.7368754,12.3246853 18.3608265,13.1003977 20.24343,14.0316111 L18.8239748,14.7217307 C18.8239748,14.7217307 18.4898272,15.0363177 19.3883527,14.8669247 C20.2855344,14.6979798 21.9992725,14.1647056 22.7186304,15.8380216 C22.8341935,16.1575381 22.8341935,16.1687413 22.0203247,16.1898034 C21.2064559,16.2108655 19.4403113,15.4064728 20.3177846,17.2267754 C21.1952579,19.0470779 21.4501238,20.1781571 24.9295585,21.5010358 C28.4089933,22.8239145 31.4969468,24.6442171 32.6812446,28.3887883 C33.8655424,32.1347039 33.0404756,34.8440957 29.699,38.1450186 C26.3570764,41.4468377 21.5168637,47.7103456 24.9730067,51.9962575 C28.4300454,56.2803768 35.6639372,53.6149017 35.6312391,49.519445 C35.6003327,45.4253326 31.8561778,44.5676125 30.7453387,46.7258048 C29.6353955,48.8853416 31.7603231,50.1226275 31.7603231,50.1226275 C31.7603231,50.1226275 29.6031453,50.1548928 29.4454778,47.1076113 C29.2864666,44.0603298 34.1092103,42.5994272 36.3931493,45.0126052 M28.7158178,34.2660085 C28.7704639,34.2323987 30.8147662,32.9220677 30.0904811,28.4537671 C29.6613748,25.8102504 26.2715238,24.2202864 26.2715238,24.2202864 C26.2715238,24.2202864 31.4423007,28.3318758 28.7158178,34.2660085" id="Fill-18"></path>
                <path d="M23.7973537,9.69259587 L21.4498103,9.23774429 C20.5503889,8.45441369 20.4818573,8.29622393 19.4341748,7.71455167 C18.387836,7.1328794 17.0705063,7.30182427 15.5009981,6.85190212 C13.9256671,6.40063558 12.0117092,5.20681823 11.9597506,3.38696378 C11.9060003,1.56800559 12.6083373,0 12.6083373,0 C12.4977013,1.94577887 12.3646694,1.90455095 12.9151618,3.481071 C13.5364255,5.26417882 16.2830647,5.75622516 17.2769969,5.90455607 C18.2709292,6.05243885 19.2702365,5.61954562 21.290799,6.82546247 C23.3100178,8.03137932 23.7973537,9.69259587 23.7973537,9.69259587" id="Fill-20"></path>
                <path d="M18.369337,12.7013382 C18.3903892,12.7098527 18.4141289,12.7210559 18.4414519,12.7336036 C18.4177122,12.7237447 18.3930767,12.7125415 18.369337,12.7013382" id="Fill-22"></path>
            </g>
        </g>
    </g>
</svg>