<?xml version="1.0" encoding="UTF-8"?>
<svg width="201px" height="70px" viewBox="0 0 201 70" version="1.1" xmlns="http://www.w3.org/2000/svg" xmlns:xlink="http://www.w3.org/1999/xlink">
    <title>编组 2</title>
    <defs>
        <linearGradient x1="31.3820252%" y1="9.77300574%" x2="61.9232239%" y2="103.416199%" id="linearGradient-1">
            <stop stop-color="#FF0000" offset="0%"></stop>
            <stop stop-color="#FFFF05" offset="20%"></stop>
            <stop stop-color="#00FF09" offset="40%"></stop>
            <stop stop-color="#09FFFF" offset="60%"></stop>
            <stop stop-color="#0000FF" offset="80%"></stop>
            <stop stop-color="#FF00FF" offset="100%"></stop>
        </linearGradient>
        <linearGradient x1="26.0834503%" y1="13.9875152%" x2="68.762919%" y2="99.694732%" id="linearGradient-2">
            <stop stop-color="#FF0000" offset="0%"></stop>
            <stop stop-color="#FFFF05" offset="20%"></stop>
            <stop stop-color="#00FF09" offset="40%"></stop>
            <stop stop-color="#09FFFF" offset="60%"></stop>
            <stop stop-color="#0000FF" offset="80%"></stop>
            <stop stop-color="#FF00FF" offset="100%"></stop>
        </linearGradient>
        <linearGradient x1="31.0066709%" y1="22.0946912%" x2="75.5316366%" y2="65.8295989%" id="linearGradient-3">
            <stop stop-color="#FF0000" offset="0%"></stop>
            <stop stop-color="#FFFF05" offset="20%"></stop>
            <stop stop-color="#00FF09" offset="40%"></stop>
            <stop stop-color="#09FFFF" offset="60%"></stop>
            <stop stop-color="#0000FF" offset="80%"></stop>
            <stop stop-color="#FF00FF" offset="100%"></stop>
        </linearGradient>
        <linearGradient x1="33.8532704%" y1="12.9051814%" x2="59.8310955%" y2="96.1777432%" id="linearGradient-4">
            <stop stop-color="#FF0000" offset="0%"></stop>
            <stop stop-color="#FFFF05" offset="20%"></stop>
            <stop stop-color="#00FF09" offset="40%"></stop>
            <stop stop-color="#09FFFF" offset="60%"></stop>
            <stop stop-color="#0000FF" offset="80%"></stop>
            <stop stop-color="#FF00FF" offset="100%"></stop>
        </linearGradient>
        <linearGradient x1="15.2284802%" y1="14.0572799%" x2="77.5630204%" y2="102.471611%" id="linearGradient-5">
            <stop stop-color="#FF0000" offset="0%"></stop>
            <stop stop-color="#FFFF05" offset="20%"></stop>
            <stop stop-color="#00FF09" offset="40%"></stop>
            <stop stop-color="#09FFFF" offset="60%"></stop>
            <stop stop-color="#0000FF" offset="80%"></stop>
            <stop stop-color="#FF00FF" offset="100%"></stop>
        </linearGradient>
        <linearGradient x1="-15.4277302%" y1="-125.5%" x2="147.013531%" y2="310.5%" id="linearGradient-6">
            <stop stop-color="#FF0000" offset="0%"></stop>
            <stop stop-color="#FFFF05" offset="20%"></stop>
            <stop stop-color="#00FF09" offset="40%"></stop>
            <stop stop-color="#09FFFF" offset="60%"></stop>
            <stop stop-color="#0000FF" offset="80%"></stop>
            <stop stop-color="#FF00FF" offset="100%"></stop>
        </linearGradient>
        <linearGradient x1="7.03686483%" y1="-24.5%" x2="257.821677%" y2="411.5%" id="linearGradient-7">
            <stop stop-color="#FF0000" offset="0%"></stop>
            <stop stop-color="#FFFF05" offset="20%"></stop>
            <stop stop-color="#00FF09" offset="40%"></stop>
            <stop stop-color="#09FFFF" offset="60%"></stop>
            <stop stop-color="#0000FF" offset="80%"></stop>
            <stop stop-color="#FF00FF" offset="100%"></stop>
        </linearGradient>
        <linearGradient x1="-43.3822101%" y1="-54.2271232%" x2="63.22283%" y2="134.486039%" id="linearGradient-8">
            <stop stop-color="#FF0000" offset="18%"></stop>
            <stop stop-color="#FFFF05" offset="36%"></stop>
            <stop stop-color="#00FF09" offset="51%"></stop>
            <stop stop-color="#09FFFF" offset="64%"></stop>
            <stop stop-color="#0000FF" offset="87%"></stop>
            <stop stop-color="#0500FF" offset="88%"></stop>
            <stop stop-color="#1300FF" offset="90%"></stop>
            <stop stop-color="#2B00FF" offset="92%"></stop>
            <stop stop-color="#4D00FF" offset="93%"></stop>
            <stop stop-color="#7800FF" offset="95%"></stop>
            <stop stop-color="#AD00FF" offset="97%"></stop>
            <stop stop-color="#EB00FF" offset="99%"></stop>
            <stop stop-color="#FF00FF" offset="100%"></stop>
        </linearGradient>
        <linearGradient x1="11.8326667%" y1="-13.9776188%" x2="88.6906412%" y2="75.1324604%" id="linearGradient-9">
            <stop stop-color="#FF0000" offset="18%"></stop>
            <stop stop-color="#FFFF05" offset="36%"></stop>
            <stop stop-color="#00FF09" offset="51%"></stop>
            <stop stop-color="#09FFFF" offset="64%"></stop>
            <stop stop-color="#0000FF" offset="87%"></stop>
            <stop stop-color="#0500FF" offset="88%"></stop>
            <stop stop-color="#1300FF" offset="90%"></stop>
            <stop stop-color="#2B00FF" offset="92%"></stop>
            <stop stop-color="#4D00FF" offset="93%"></stop>
            <stop stop-color="#7800FF" offset="95%"></stop>
            <stop stop-color="#AD00FF" offset="97%"></stop>
            <stop stop-color="#EB00FF" offset="99%"></stop>
            <stop stop-color="#FF00FF" offset="100%"></stop>
        </linearGradient>
        <linearGradient x1="-21.3394666%" y1="48.2102609%" x2="108.833615%" y2="122.031995%" id="linearGradient-10">
            <stop stop-color="#FF0000" offset="18%"></stop>
            <stop stop-color="#FFFF05" offset="36%"></stop>
            <stop stop-color="#00FF09" offset="51%"></stop>
            <stop stop-color="#09FFFF" offset="64%"></stop>
            <stop stop-color="#0000FF" offset="87%"></stop>
            <stop stop-color="#0500FF" offset="88%"></stop>
            <stop stop-color="#1300FF" offset="90%"></stop>
            <stop stop-color="#2B00FF" offset="92%"></stop>
            <stop stop-color="#4D00FF" offset="93%"></stop>
            <stop stop-color="#7800FF" offset="95%"></stop>
            <stop stop-color="#AD00FF" offset="97%"></stop>
            <stop stop-color="#EB00FF" offset="99%"></stop>
            <stop stop-color="#FF00FF" offset="100%"></stop>
        </linearGradient>
        <linearGradient x1="22.8721449%" y1="2.64713676%" x2="72.1739108%" y2="93.8899498%" id="linearGradient-11">
            <stop stop-color="#FF0000" offset="18%"></stop>
            <stop stop-color="#FFFF05" offset="36%"></stop>
            <stop stop-color="#00FF09" offset="51%"></stop>
            <stop stop-color="#09FFFF" offset="64%"></stop>
            <stop stop-color="#0000FF" offset="87%"></stop>
            <stop stop-color="#0500FF" offset="88%"></stop>
            <stop stop-color="#1300FF" offset="90%"></stop>
            <stop stop-color="#2B00FF" offset="92%"></stop>
            <stop stop-color="#4D00FF" offset="93%"></stop>
            <stop stop-color="#7800FF" offset="95%"></stop>
            <stop stop-color="#AD00FF" offset="97%"></stop>
            <stop stop-color="#EB00FF" offset="99%"></stop>
            <stop stop-color="#FF00FF" offset="100%"></stop>
        </linearGradient>
        <linearGradient x1="-105.729895%" y1="93.0782172%" x2="283.130136%" y2="411.509635%" id="linearGradient-12">
            <stop stop-color="#FF0000" offset="18%"></stop>
            <stop stop-color="#FFFF05" offset="36%"></stop>
            <stop stop-color="#00FF09" offset="51%"></stop>
            <stop stop-color="#09FFFF" offset="64%"></stop>
            <stop stop-color="#0000FF" offset="87%"></stop>
            <stop stop-color="#0500FF" offset="88%"></stop>
            <stop stop-color="#1300FF" offset="90%"></stop>
            <stop stop-color="#2B00FF" offset="92%"></stop>
            <stop stop-color="#4D00FF" offset="93%"></stop>
            <stop stop-color="#7800FF" offset="95%"></stop>
            <stop stop-color="#AD00FF" offset="97%"></stop>
            <stop stop-color="#EB00FF" offset="99%"></stop>
            <stop stop-color="#FF00FF" offset="100%"></stop>
        </linearGradient>
        <linearGradient x1="-30981.7601%" y1="-4074.5%" x2="44472.8504%" y2="112980.5%" id="linearGradient-13">
            <stop stop-color="#FF0000" offset="18%"></stop>
            <stop stop-color="#FFFF05" offset="36%"></stop>
            <stop stop-color="#00FF09" offset="51%"></stop>
            <stop stop-color="#09FFFF" offset="64%"></stop>
            <stop stop-color="#0000FF" offset="87%"></stop>
            <stop stop-color="#0500FF" offset="88%"></stop>
            <stop stop-color="#1300FF" offset="90%"></stop>
            <stop stop-color="#2B00FF" offset="92%"></stop>
            <stop stop-color="#4D00FF" offset="93%"></stop>
            <stop stop-color="#7800FF" offset="95%"></stop>
            <stop stop-color="#AD00FF" offset="97%"></stop>
            <stop stop-color="#EB00FF" offset="99%"></stop>
            <stop stop-color="#FF00FF" offset="100%"></stop>
        </linearGradient>
        <linearGradient x1="-47931.8288%" y1="-4021.5%" x2="69022.8174%" y2="113033.5%" id="linearGradient-14">
            <stop stop-color="#FF0000" offset="18%"></stop>
            <stop stop-color="#FFFF05" offset="36%"></stop>
            <stop stop-color="#00FF09" offset="51%"></stop>
            <stop stop-color="#09FFFF" offset="64%"></stop>
            <stop stop-color="#0000FF" offset="87%"></stop>
            <stop stop-color="#0500FF" offset="88%"></stop>
            <stop stop-color="#1300FF" offset="90%"></stop>
            <stop stop-color="#2B00FF" offset="92%"></stop>
            <stop stop-color="#4D00FF" offset="93%"></stop>
            <stop stop-color="#7800FF" offset="95%"></stop>
            <stop stop-color="#AD00FF" offset="97%"></stop>
            <stop stop-color="#EB00FF" offset="99%"></stop>
            <stop stop-color="#FF00FF" offset="100%"></stop>
        </linearGradient>
    </defs>
    <g id="控件" stroke="none" stroke-width="1" fill="none" fill-rule="evenodd">
        <g id="顶部导航备份" transform="translate(-30, -5)">
            <g id="编组-2" transform="translate(30, 5)">
                <g id="资源-1" transform="translate(0, 0)" fill-rule="nonzero">
                    <g id="编组">
                        <path d="M38.1038666,33.6999286 C43.0053179,34.7951605 46.6727521,39.1717593 46.67,44.4058897 C46.6688183,45.9426776 46.3493979,47.4121695 45.7852983,48.7262117 C45.7121306,48.570762 45.6574515,48.2626173 45.6425032,47.9552597 C45.6090663,47.2862355 45.6873479,46.6498755 45.6873479,45.9548774 C45.6873479,43.867522 45.410412,41.8482496 44.1067676,40.3925317 C41.9978847,38.0391407 39.3469313,40.3626223 39.2041362,40.549162 C39.0613411,40.7357017 38.8748814,40.9568732 38.6486908,40.8451068 C38.5232042,40.782927 38.5117963,40.6424319 38.5306783,40.5168915 C38.5507405,40.3901704 38.6089599,40.2705331 38.6911753,40.1725408 C40.3264348,38.2256804 42.6146966,38.4082847 42.6839306,38.4145814 C42.6516738,38.3799495 42.6205972,38.3425629 42.5871603,38.3075375 C42.038009,37.7392605 41.6155243,37.1339904 40.9554412,36.6951892 C40.3988158,36.3158131 39.6753993,36.0053072 38.9893535,35.845922 C38.717138,35.7837422 38.4339081,35.7491103 38.1443842,35.7451749 L38.1058334,35.7451749 C35.9521059,35.7451749 34.2074882,37.4905409 34.2074882,39.6451923 C34.2074882,40.8946933 34.7951903,42.0060606 35.7086068,42.7199487 C36.3285656,43.2047945 37.0980069,43.5058554 37.9366822,43.5416678 C38.0747568,43.5479645 38.2049639,43.6164411 38.2686907,43.7368655 C38.4016514,43.989127 38.0188976,44.025333 38.0188976,44.025333 C37.0295597,44.025333 36.1126028,43.7183689 35.3557495,43.1961365 C34.1292066,42.34805 33.3239681,40.9332606 33.3239681,39.3283897 C33.3239681,39.1083988 33.3400965,38.8931304 33.369993,38.6817975 C33.4994133,37.7431959 33.9041961,36.8939287 34.502126,36.2190014 C34.6390204,35.8160127 34.758213,35.4059403 34.8561634,34.9868163 C34.975356,34.4846546 35.0650454,33.9722608 35.1260186,33.451209 C35.1858115,32.9376346 35.2180683,32.4169763 35.2180683,31.8884472 C35.2180683,29.0773651 34.3518567,26.4701385 32.8743406,24.3154871 C35.7699733,26.5185443 37.7407815,29.8742909 38.1050467,33.6999286 L38.1038666,33.6999286 Z" id="路径" fill="url(#linearGradient-1)"></path>
                        <path d="M44.5984862,50.8123865 C44.6047802,51.0138808 44.6071405,51.2165558 44.6071405,51.4180502 C44.6071405,51.6404023 44.6036001,51.863148 44.5973061,52.0855002 C44.596126,52.1527961 44.5910121,52.2196985 44.5886518,52.2869945 C44.583538,52.4424442 44.5776373,52.5967133 44.5685897,52.7521631 C44.5650493,52.8241816 44.5587553,52.8962001 44.5536415,52.9686121 C44.5438071,53.1177651 44.5335794,53.2669182 44.5213847,53.4160712 C44.5139106,53.5006831 44.5040762,53.5837208 44.4966021,53.6683327 C44.482834,53.8052859 44.4706394,53.9418455 44.454511,54.0787987 C44.4458568,54.1547526 44.4344489,54.230313 44.4257946,54.3062669 C44.407306,54.4503039 44.3896041,54.5947344 44.3699354,54.7375907 C44.3612811,54.79859 44.3498733,54.8568344 44.341219,54.9178337 C44.3164364,55.0768253 44.2928339,55.2362105 44.2652977,55.3952021 C44.2578235,55.4361307 44.2491693,55.4774528 44.2416952,55.5183813 C44.2106186,55.6950824 44.1783618,55.8713899 44.1421713,56.048091 C44.1370575,56.0717037 44.1311568,56.0953163 44.126043,56.1189289 C44.0874922,56.3105846 44.0603493,56.4994856 43.9966226,56.6832705 C43.9517779,56.8127463 43.8849041,56.9367126 43.8251112,57.0587111 C43.8251112,57.0598917 43.823931,57.0610724 43.823931,57.0610724 C43.7629579,57.1842515 43.7019848,57.3074307 43.6398316,57.4290356 C43.6386515,57.4302163 43.6374713,57.4325775 43.6362912,57.4341517 C43.5729578,57.5585115 43.5084444,57.68051 43.4435375,57.802115 L43.4435375,57.8032956 C43.1827299,58.2881414 42.9054006,58.7619679 42.6135165,59.2243817 C42.6123363,59.226743 42.6099761,59.2294978 42.6084026,59.2330397 C42.0207005,60.160622 41.3692716,61.0405856 40.6635571,61.8674208 L40.5927496,61.950852 C40.5294162,62.0279866 40.4621491,62.1023663 40.3940953,62.175959 L40.3940953,62.1771396 C39.8547783,62.7851645 39.2855648,63.3632801 38.6892084,63.9091252 L38.6829144,63.9154219 C38.4866204,64.0944842 38.2863925,64.2711853 38.0849846,64.443951 C38.0814442,64.4463122 38.0775105,64.449067 38.0751502,64.4514283 C37.871382,64.6253746 37.6636801,64.795779 37.4551914,64.9622479 C37.4528311,64.9634286 37.451651,64.9646092 37.4488974,64.967364 C37.3470133,65.0468598 37.2451292,65.1279298 37.1420649,65.206245 C37.1385246,65.2097869 37.1334107,65.2125417 37.1294769,65.2160836 C36.8124168,65.4585064 36.489456,65.693452 36.1602012,65.9197396 C36.1550873,65.9221008 36.1515469,65.9260363 36.1464331,65.9283975 C36.0496628,65.9956935 35.9524992,66.0602347 35.8545489,66.1259565 C35.8396006,66.1346144 35.8258325,66.1460272 35.8108843,66.1546851 C35.7113604,66.2204069 35.6122299,66.2853416 35.5127061,66.3487021 L35.4717951,66.374676 C35.3750249,66.4368559 35.2766811,66.4978552 35.1783374,66.5572803 C35.162209,66.5682995 35.1449006,66.5785316 35.1271987,66.5895509 C35.0276748,66.6505501 34.9285444,66.7099752 34.8278404,66.7697938 C34.811712,66.7784518 34.7967638,66.7882904 34.7806354,66.7973419 C34.6885857,66.8520445 34.5953558,66.9055664 34.502126,66.9590883 C34.4785235,66.9728624 34.454921,66.9866364 34.4301384,67.0000169 C34.3294344,67.0570807 34.2275503,67.1129639 34.1268463,67.1692406 C34.1095378,67.1778986 34.0934094,67.1877372 34.0772811,67.1967887 C33.9891651,67.2440139 33.9006557,67.2912392 33.8113596,67.3372838 C33.780283,67.3534191 33.7503865,67.370735 33.7193099,67.3868703 C33.6248999,67.4352761 33.53049,67.4825014 33.4372601,67.5309072 C33.4112974,67.5435006 33.3849412,67.5568811 33.3589785,67.5706551 C33.2708625,67.6143385 33.181173,67.6564477 33.0930571,67.700131 C33.0608003,67.7162663 33.0273635,67.7324016 32.9935332,67.7485369 C32.9054172,67.790646 32.8157278,67.8319681 32.7264317,67.8728966 C32.6929948,67.8878513 32.660738,67.9039866 32.6269078,67.9189413 C32.5313177,67.9626246 32.4341541,68.0059144 32.338564,68.0484171 C32.3110278,68.0594363 32.2838849,68.0720297 32.2563486,68.0846231 C32.1741333,68.1208291 32.0911312,68.155461 32.0089158,68.1904864 C31.9668247,68.2078023 31.9255203,68.2266924 31.8834292,68.2440083 C31.7976735,68.2786401 31.7107377,68.3136655 31.6249819,68.3482974 C31.5852511,68.363252 31.5467003,68.3793873 31.5069695,68.3955226 C31.4188535,68.4301544 31.3279839,68.4639992 31.2386878,68.498631 C31.2024973,68.5124051 31.16552,68.5273597 31.1281494,68.5407402 C31.0549817,68.5682883 30.9814206,68.5942621 30.9082529,68.620236 C30.8547539,68.6403067 30.8000748,68.6599839 30.7465758,68.6800546 C30.6808822,68.7024866 30.6147952,68.7249186 30.5502817,68.7473506 C30.4869483,68.7697826 30.4247951,68.791034 30.3626419,68.8118918 C30.2768861,68.8406204 30.1923105,68.867775 30.1077349,68.895323 C30.0628902,68.909097 30.0196189,68.9240517 29.9747742,68.9374322 C29.8941324,68.9634061 29.8130971,68.9870187 29.7324553,69.0122055 C29.68289,69.0271601 29.6341115,69.0421148 29.5857264,69.0570694 C29.5160991,69.0783208 29.4452916,69.0968174 29.3756642,69.1168881 C29.3146911,69.134204 29.253718,69.1530941 29.1943184,69.1692294 C29.1097428,69.192842 29.0251672,69.215274 28.940985,69.237706 C28.89378,69.2502994 28.846575,69.2624992 28.8005501,69.2750926 C28.7061401,69.2987052 28.6117302,69.3223179 28.5185003,69.3447498 C28.4799496,69.3545884 28.4413988,69.3648206 28.4040282,69.3734785 C28.3159122,69.3947299 28.2274029,69.4144071 28.1392869,69.4344778 C28.0944422,69.4443164 28.0499908,69.4557292 28.0051461,69.4655677 C27.9107361,69.4856385 27.815146,69.5053157 27.7191625,69.5253864 C27.6806118,69.5328637 27.6432412,69.5415217 27.6046904,69.548999 C27.5091003,69.5690697 27.4146903,69.5863856 27.3187069,69.6037016 C27.2801561,69.6111789 27.2404253,69.6198368 27.2018745,69.6273142 C27.090156,69.6473849 26.9768641,69.6670621 26.8651456,69.6855586 C26.8427232,69.6891005 26.8203009,69.693036 26.7966984,69.6965779 C26.7184168,69.7103519 26.638955,69.7213711 26.5594933,69.7339645 C26.5036341,69.7426225 26.4477748,69.7512804 26.3903421,69.7599384 C26.3120605,69.7709576 26.2337789,69.7811897 26.1554973,69.792209 C26.0984579,69.7996863 26.0410252,69.8083442 25.9828057,69.8158216 C25.8860355,69.828415 25.7888719,69.8394342 25.6921016,69.8504534 C25.6523708,69.8539953 25.6126399,69.860292 25.5740892,69.8642274 C25.4906937,69.8728854 25.4065115,69.8815434 25.323116,69.8890207 C25.269617,69.8941368 25.216118,69.9000399 25.162619,69.905156 C25.0768633,69.9138139 24.9911076,69.9201106 24.9053518,69.9264073 C24.853033,69.9315234 24.8011075,69.9350653 24.7499688,69.9390007 C24.676801,69.9452974 24.60442,69.9488393 24.5324324,69.9539554 C24.4667388,69.9574973 24.4006518,69.9626134 24.3361384,69.9665488 C24.2763454,69.9689101 24.2169458,69.9716649 24.1583329,69.9740261 C24.0788712,69.977568 23.9994094,69.9826841 23.9195543,69.9850453 C23.8636951,69.9874066 23.8078359,69.9874066 23.7519766,69.9901614 C23.5308999,69.9964581 23.3082497,70 23.0859929,70 C10.3571678,69.9984258 0,59.6383896 0,46.9021369 C0,45.1217455 0.2037682,43.3452896 0.6065841,41.6231426 C1.3980544,38.2339448 2.98768239,35.0100354 5.19962946,32.2997003 C5.72399821,31.6570436 6.29085144,31.0364253 6.8872078,30.4472905 C9.31944482,27.4685587 11.2615367,22.0600885 11.9849532,18.304108 C12.0644149,20.4028762 12.8460508,24.2084432 14.6008963,25.3871064 C15.3628634,25.897926 16.2066526,26.2375542 17.1114149,26.3965458 L17.125183,26.3977264 C17.5925124,26.3752945 18.07479,26.4052038 18.5554942,26.4898157 C19.8666127,26.7223999 21.055785,27.3512827 21.9928041,28.3087743 C22.348415,28.6716216 22.6599679,29.0746103 22.9188086,29.5071147 C23.3601752,30.2418607 23.6445853,31.0462639 23.764958,31.895531 L23.764958,31.8967117 C23.8098027,32.2048563 23.8322251,32.5145752 23.8322251,32.8168167 C23.8322251,33.1674641 23.8023286,33.522834 23.7441091,33.8762361 C23.7291609,33.9671447 23.7130325,34.0576598 23.6929704,34.1473877 C23.6906101,34.036802 23.6854963,33.9187389 23.6756619,33.7857211 C23.6135087,32.927796 23.3884982,32.1048962 23.0069246,31.3390603 C22.7225145,30.7660608 22.3543156,30.2387123 21.9157026,29.7711825 C21.3118721,29.1285257 20.5994702,28.6224286 19.7969854,28.2682393 C18.9669643,27.9014567 18.0846244,27.714917 17.1747482,27.714917 C16.9151208,27.714917 16.6429054,27.7322329 16.3655761,27.7672583 C16.2821806,27.7574197 16.2066526,27.7534843 16.1358451,27.7534843 C15.736963,27.7534843 15.3502755,27.8680055 15.0147267,28.0868157 C14.5426768,28.3937798 14.2118485,28.887677 14.1076041,29.4406058 C14.093836,29.518921 14.0828215,29.6023523 14.0777076,29.6940479 L14.0765275,29.7188412 C14.0741673,29.753473 14.0714136,29.789679 14.0714136,29.8270657 C14.0714136,30.2745248 14.2142087,30.704668 14.4754097,31.0592508 C13.7122624,30.6291076 12.8547051,30.4040007 11.9700049,30.4040007 L11.9401084,30.4051813 C11.8433382,30.4063619 11.727686,30.4075425 11.6132139,30.4189553 C11.1321164,30.4610645 10.5035033,30.6015596 10.1183892,30.7522868 C9.89613243,30.8380793 9.6785961,30.9400071 9.47482791,31.0545283 C6.7632947,32.4134345 4.48644076,34.6440398 3.06596399,37.3366653 C1.95861364,39.4366142 1.37209166,41.8112565 1.37209166,44.2020341 C1.37209166,46.7581 2.03571512,49.274418 3.29215456,51.4814107 L3.34565355,51.4503207 L3.40544653,51.43025 C2.93064302,49.9717773 2.68950421,48.4475828 2.68950421,46.9021369 C2.68950421,42.9698489 4.22681333,39.2847063 7.01662814,36.5255719 C8.12004474,35.4338819 9.38159805,34.5326669 10.7647042,33.8451462 C10.8614744,33.7967403 10.9609983,33.7495151 11.059342,33.7034705 C11.1513917,33.6597871 11.2434415,33.6200392 11.3362779,33.5802913 C11.4393422,33.536608 11.5412263,33.4933182 11.6431104,33.4449123 C12.1151603,33.2198054 12.8783076,33.0159498 13.4203782,32.9710858 C14.2267967,32.9037898 15.0544575,33.1686447 15.6338988,33.6810385 C16.3384332,34.3028374 16.7436094,35.1989363 16.7436094,36.1391121 C16.7436094,36.6389125 16.633071,37.1186422 16.4178949,37.5653142 C16.2648721,37.8809362 16.0599238,38.1733391 15.8152446,38.4256006 C15.9769217,38.1198172 16.0862799,37.788847 16.1370253,37.4472511 C16.1594476,37.2969174 16.1704621,37.143829 16.1704621,36.9934953 C16.1704621,36.4913336 16.0473358,36.0049137 15.8211452,35.5735898 C15.5937745,35.142266 15.2645197,34.7656448 14.8518694,34.4807192 C14.3459893,34.1324331 13.7543535,33.9486482 13.1406886,33.9486482 C12.4385144,33.9486482 11.7536487,34.1950065 11.2131516,34.6436462 C11.0365263,34.790438 10.8752426,34.9592682 10.7336276,35.1446273 C10.5621161,35.3697342 10.4240415,35.615699 10.3209773,35.8793733 L10.3780167,35.9018052 L10.4055529,35.9576884 C10.560936,35.8817345 10.7261535,35.8195546 10.8964848,35.7723294 C11.1262157,35.7089689 11.3649943,35.6739435 11.6061331,35.6680403 L11.6309157,35.6680403 C11.6446839,35.6668597 11.658452,35.6668597 11.6718267,35.6668597 C12.3216821,35.6668597 12.9369204,35.8781926 13.4514548,36.2796071 C13.7299642,36.4972368 13.964809,36.7593368 14.147335,37.0592171 C14.3475628,37.3850712 14.4793434,37.7467378 14.5399232,38.1245397 C14.282656,37.6396939 13.8963618,37.2280473 13.4250987,36.9435152 C13.3295086,36.8852708 13.2264444,36.8317489 13.1182663,36.7817688 C12.8236285,36.6463898 12.510502,36.5605973 12.1887214,36.5255719 C11.7973133,36.4846434 11.41928,36.5169139 11.0479341,36.6200224 C10.7682446,36.6983376 10.4999629,36.8187619 10.2537102,36.9742116 C10.2151595,36.9978243 10.1777889,37.0237981 10.1392381,37.0501656 C9.67584248,37.3732649 9.31157732,37.8171821 9.08656688,38.3342985 C9.03818176,38.3677497 8.99333702,38.4000202 8.94849229,38.4326844 C8.92370967,38.4500003 8.89617342,38.4688904 8.8713908,38.4862063 C8.80058332,38.537367 8.73331621,38.5881341 8.6676226,38.6392948 C8.51459977,38.7585385 8.36315043,38.8828983 8.22035534,39.0111935 C6.01076851,40.9667118 4.74331458,43.9430823 4.74331458,47.1744691 C4.74331458,50.8348185 6.43718691,54.2413322 9.16248823,56.0650134 L9.19710522,56.0126721 L9.24667046,55.9764661 C8.0673325,54.3129571 7.44343991,52.3535034 7.44343991,50.3094377 C7.44343991,47.4550657 8.68257085,44.7506339 10.8410189,42.8872048 C10.9999424,42.7502516 11.1478514,42.6310079 11.2910398,42.5216027 C12.2406468,41.7955147 13.3003988,41.2583277 14.4439397,40.9226349 C14.4376457,40.927751 14.4313517,40.9324735 14.4266312,40.9375896 L13.097024,42.2032259 C11.6356362,43.8793283 10.7729651,46.0237475 10.6675406,48.2429401 L10.7296938,48.246482 L10.6675406,48.25514 C11.0923855,51.1583114 12.273297,53.914691 14.0824281,56.2271534 C14.3522833,56.5715041 14.6441675,56.9158547 14.9498198,57.2491862 C15.4765488,57.8221857 16.043402,58.3617341 16.636218,58.8516959 C17.188123,59.307813 17.7770052,59.7344143 18.3883098,60.1196935 C19.0393453,60.5313401 19.717917,60.8965486 20.405143,61.2102029 C22.588767,62.2011458 24.9210868,62.7044881 27.3371955,62.7044881 C31.7339468,62.7044881 35.8946731,61.0122505 39.053867,57.9414295 C42.0887543,54.9898522 43.8880511,51.0709447 44.1539726,46.8600278 L44.1689208,46.9348011 C44.1850492,47.0154775 44.1999974,47.0965475 44.2149457,47.1760433 C44.2361879,47.2941064 44.2586103,47.4121695 44.278279,47.5302326 C44.2920472,47.6148445 44.3058153,47.6994563 44.31919,47.7836747 C44.3376787,47.8993765 44.3553805,48.0150783 44.3715089,48.1303866 C44.3840969,48.2161791 44.3951114,48.3019717 44.4061259,48.3889448 C44.4222543,48.5046466 44.4360224,48.6187743 44.4497905,48.7356567 C44.4596249,48.8214493 44.4698526,48.9072418 44.4785069,48.9930343 C44.4910949,49.1099167 44.5021094,49.2279798 44.5119437,49.3448623 C44.5194179,49.4294742 44.5280721,49.5140861 44.5343661,49.5983044 C44.5442005,49.7203029 44.5516746,49.8430885 44.5591487,49.9650871 C44.5642626,50.0445829 44.5701632,50.1240787 44.574097,50.203968 C44.5815711,50.3393471 44.586685,50.4751196 44.5902253,50.6104986 C44.5925856,50.6777946 44.5965193,50.7435164 44.5976995,50.8108123 L44.5984862,50.8123865 Z" id="路径" fill="url(#linearGradient-2)"></path>
                        <path d="M40.2772629,9.32659062 C41.2453585,7.8346667 43.0584235,9.17350214 42.0753796,10.0837686 C41.0911556,10.9924608 40.2347784,10.4592092 39.8968694,10.5178472 C39.5577802,10.574911 39.7115898,10.8932878 38.4417756,11.4753389 C37.1727482,12.0569964 35.291236,11.8023736 34.670097,12.0585705 C34.0674467,12.3061095 33.9108835,13.3726127 34.3011114,13.3875674 C34.7062875,13.4037027 34.5658527,13.4324314 35.032002,12.7921359 C35.4969711,12.1518404 35.8458946,12.5918222 35.8671369,12.7610459 C35.8883791,12.9302697 35.8856255,13.8901226 36.3741971,13.5654491 C37.2529967,12.9810368 37.3371789,13.2584851 37.3721893,13.7047636 C37.3969719,14.0392757 37.2427689,14.8771301 36.777013,15.327344 C36.7372822,15.5835409 36.6267438,16.0494965 36.332106,16.2313137 C36.047696,16.4080148 35.7841348,16.4949879 35.9308636,16.1207279 C36.006785,15.9278916 36.0040313,15.7354487 36.006785,15.5737023 C35.8875924,15.5599283 35.7621058,15.535135 35.6326854,15.5005032 C35.4761222,15.7216747 34.9702421,16.4119502 34.8384615,16.0514643 C34.7727679,15.8724019 34.714155,15.4410781 34.7912565,15.2234485 C34.6358734,15.1687459 34.4930783,15.1215207 34.3738857,15.0939726 C33.8109663,14.9672515 33.1835333,15.729152 33.1835333,15.729152 C32.6154999,15.9778716 32.8031398,15.3848013 32.6465765,15.0514699 C32.4911935,14.7181384 32.3830154,14.443445 31.6686465,14.0939782 C31.1541122,13.8428974 31.1505718,14.0282564 30.7379215,14.1860674 C30.9267415,14.4221936 31.35434,14.9420648 31.5529943,15.0888565 C31.8114416,15.2789381 31.8326839,15.4591811 31.6163277,15.4009366 C31.3987914,15.3426922 30.2941946,14.7980278 30.1671345,14.3592266 C30.1620207,14.344272 30.1584803,14.3316786 30.1545465,14.3194787 C30.1108819,14.3245948 30.0664306,14.3293173 30.0192256,14.3332528 C29.4712543,14.3753619 28.8123514,14.2659568 28.2360571,14.1565517 C28.4807363,14.3541106 28.8363472,14.5780369 29.2462439,14.6339201 C30.0192256,14.7397833 30.9102197,14.9408841 31.2792054,15.9668524 C31.6493712,16.9936077 31.9404686,17.6862445 32.502208,17.586678 C33.0627672,17.4859308 33.4962663,17.2797139 33.6292271,17.1104902 C33.7621878,16.9412664 33.9746102,17.4387056 33.2338853,17.8503522 C32.4931603,18.2631795 31.5411931,17.9798281 31.2556029,17.5307948 C30.9711928,17.082155 30.9015655,16.2006173 30.3520207,15.8724019 C29.8012959,15.5441865 29.8835112,15.5465478 28.931544,15.4198267 C28.0267817,15.2994024 27.0586861,14.5855142 27.0374438,13.9826054 C26.9453941,13.9877214 26.8785203,14.0073986 26.8446901,14.0471465 C26.6236134,14.3171175 27.2262638,15.3639435 28.1621027,15.5862957 C29.0979415,15.8086478 29.991296,15.4757099 30.610468,16.6020318 C31.1226422,17.5343367 31.5998059,18.4009198 32.5281707,18.8401145 C32.6103861,18.8365726 34.1087511,18.7617993 34.5564117,17.9436221 C35.016267,17.1018322 34.7538859,18.4036746 34.3738857,18.7295287 C34.1476952,18.9223651 33.9750036,19.0726988 33.8184404,19.1734459 C34.6881923,19.3029218 35.1755838,19.2702577 34.8313808,19.4544361 C34.5158941,19.6220857 34.2920638,20.0526224 34.2920638,20.0526224 C33.4667632,21.9573736 33.0021875,22.0628433 32.5781293,22.1687065 C32.1556447,22.2745698 32.0710691,22.2954276 32.4723115,21.4713472 C32.8751274,20.6468733 31.7315865,21.221447 31.7315865,21.221447 C30.1494327,21.7212474 29.9743808,21.3170781 29.9743808,21.3170781 C30.0739047,21.3009428 30.6092879,21.0707198 30.6092879,21.0707198 C31.3787292,20.752343 31.5502407,19.995165 30.379557,20.0660029 C29.2100534,20.1380214 29.2785006,19.8184639 29.2785006,19.8184639 C29.2785006,19.8184639 29.6376519,20.1368407 30.1883768,19.5760411 C30.7375281,19.0152414 29.912621,18.8873397 28.8662437,18.8660883 C27.8186864,18.844837 28.4795562,18.5862788 28.4795562,18.5862788 C30.3996191,17.4276864 29.0188732,17.3643258 27.9241108,17.586678 C23.0537362,19.1730524 22.4672142,18.3961972 22.4672142,18.3961972 C22.4672142,18.3961972 26.4812117,17.3481905 24.9104657,16.1419793 C23.5222457,15.0766567 19.4236726,13.1805634 18.4878337,12.7539621 C20.2686419,13.5249141 21.9015411,13.1195642 22.783881,12.9192505 C23.6984776,12.7142142 22.7417899,11.9247657 22.7417899,11.9247657 C11.4554705,7.88307256 7.11733211,3.65720101 6.98555152,3.52693806 C12.4125517,7.74651292 22.9211688,9.88266778 24.3864903,10.1786126 C25.8506317,10.475738 25.5335716,10.1262713 25.5335716,10.1262713 C21.7677936,3.90355932 15.0123664,2.62926503 14.7189087,2.45768 C14.4254511,2.28491435 14.6182048,2.16921252 14.6182048,2.16921252 C23.5659103,3.92481068 28.6848979,9.44858915 28.7903224,9.60758077 C28.8973203,9.76539177 29.3941529,9.73430183 29.3941529,9.73430183 C31.0754372,9.80750094 31.1179217,10.7811279 31.1065138,11.0880919 C31.0966794,11.395056 30.9275282,11.9448364 31.1065138,11.9558556 C31.2866795,11.9668749 32.259889,11.9235851 32.4286468,12.4320434 C32.5977981,12.9393212 32.7055828,12.8795026 32.7055828,12.8795026 C33.1815664,13.0062236 33.3318356,12.3399542 34.1795585,11.7854513 C34.7759149,11.395056 36.5952738,11.6276403 37.5846117,11.4422812 C38.5739496,11.2569222 39.5097885,10.4950217 39.6687119,10.3045466 C39.8264553,10.114465 40.2764762,9.32619708 40.2764762,9.32619708 L40.2772629,9.32659062 Z M41.3735988,10.2132444 C41.8023774,9.98341495 42.11039,9.59026485 41.7178018,9.20498564 C41.7178018,9.20498564 41.4927914,8.89526679 40.9574081,9.28841689 C40.5534121,9.5843617 40.1879668,9.90391913 40.2591677,10.1849093 C40.3311553,10.4670801 40.9452135,10.4434675 41.3739921,10.213638 L41.3735988,10.2132444 Z M29.0924343,12.4560496 C29.7422896,12.5804094 29.8603021,12.6587246 29.7214408,12.4139404 C29.7214408,12.4139404 29.1298049,11.2525932 28.4315645,10.9967898 C27.733324,10.7394123 27.2895971,10.8661333 27.0150214,11.088879 C26.7392656,11.3112312 26.8446901,11.5863182 27.6066573,11.9243722 C28.3686245,12.2636068 28.4429723,12.3309027 29.0928277,12.4564432 L29.0924343,12.4560496 Z" id="形状" fill="url(#linearGradient-3)"></path>
                        <path d="M28.7187281,34.2654508 C28.7734073,34.2319996 30.8177766,32.9214993 30.0919999,28.4520242 C29.6632213,25.8089852 26.2742965,24.219856 26.2742965,24.219856 C26.2742965,24.219856 31.4452096,28.3300257 28.7187281,34.2654508 Z M36.3962261,45.0111598 C38.6805542,47.4243693 39.3787946,52.0579521 36.6495596,55.6140124 C33.9203245,59.1684985 28.2612331,61.486077 22.2335495,59.4967139 C16.2644787,57.5274216 13.7295709,53.0217405 13.9840844,47.9430599 C14.2374179,42.8643792 18.4044382,42.1866971 18.4044382,42.1866971 C18.4044382,42.1866971 13.1375416,49.9957835 18.6577716,54.3759241 C18.6577716,54.3759241 19.799739,55.2649392 18.7844384,53.6773842 C17.7691377,52.0910098 16.3101102,49.6467103 18.5000283,44.8214717 C20.6883729,39.9962332 25.5437993,36.2827555 25.5437993,36.2827555 C25.5437993,36.2827555 28.7800946,32.9494409 27.1928269,29.076578 C25.6071327,25.2037151 22.1163238,24.7597978 20.1490559,22.9821612 C18.1829681,21.2057053 19.4508154,24.5972643 21.2575864,25.9337385 C21.1667168,25.8900552 18.228993,24.4654272 17.1987441,21.870794 C16.1511868,19.2364129 15.9285366,18.9825773 15.3258862,19.6492402 C14.7232359,20.3155096 15.008826,22.9475294 15.5158863,23.553193 C15.4474391,23.5047872 12.3106676,21.225776 15.0721594,13.6256613 C15.0721594,13.6256613 15.9607933,12.2171686 14.8286603,12.7539621 C13.6977075,13.2899686 11.1277892,15.6284049 11.1277892,15.6284049 C11.1277892,15.6284049 11.6348495,13.6925637 14.1626766,12.2742324 C14.1626766,12.2742324 14.6496747,11.7559355 13.8979353,11.7767933 C13.147376,11.7980447 11.4983484,12.2431425 11.4983484,12.2431425 C11.4983484,12.2431425 13.0317238,10.6677873 16.7538371,9.74177915 L21.9574003,12.1947366 C21.9574003,12.1947366 22.3810651,12.7543557 21.0699465,12.7094917 C19.7576479,12.6658084 18.4776059,12.7693103 17.7380611,12.3253931 C17.7380611,12.3253931 18.3619537,13.099887 20.244646,14.0310112 L18.8241692,14.7208932 C18.8241692,14.7208932 18.4898005,15.0365152 19.3882688,14.8665044 C20.2867371,14.6972806 22.0006716,14.164029 22.7189741,15.8385572 C22.8358065,16.1581146 22.8358065,16.1679532 22.0219138,16.1892045 C21.206841,16.2104559 19.4405877,15.4060527 20.3182071,17.226192 C21.1970066,19.0463313 21.4503401,20.1789499 24.9301345,21.5016501 C28.4099288,22.8231696 31.4979218,24.6433089 32.6823737,28.3894508 C33.8680056,32.1355926 33.0427051,34.8443535 29.6998052,38.1453975 C26.3580854,41.4464415 21.5176072,47.710082 24.9749792,51.9953787 C28.4311711,56.2810689 35.6649422,53.6140236 35.6338656,49.5199892 C35.6016088,45.4247741 31.8570731,44.5680296 30.7473625,46.7262229 C29.6364718,48.8844162 31.7626631,50.1228981 31.7626631,50.1228981 C31.7626631,50.1228981 29.6053952,50.153988 29.4460783,47.1067796 C29.2871549,44.0595713 34.1099312,42.5999179 36.3954394,45.0119469 L36.3962261,45.0111598 Z M34.9855837,54.8418798 C33.5017736,55.9855176 31.6438639,56.6671352 29.6242772,56.6671352 C24.7676706,56.6671352 20.8307746,52.7285505 20.8307746,47.8698607 C20.8307746,44.7628337 22.4424316,42.0340022 24.8734885,40.4684856 C21.8087046,41.8844556 19.6825133,44.9840053 19.6825133,48.5821747 C19.6825133,53.5168184 23.6815625,57.517583 28.6140904,57.517583 C31.1096608,57.517583 33.3652725,56.4931889 34.9855837,54.8418798 L34.9855837,54.8418798 Z" id="形状" fill="url(#linearGradient-4)"></path>
                        <path d="M23.7983949,9.69219266 L21.4507334,9.23725621 C20.5522652,8.45410438 20.4826378,8.29471921 19.4362606,7.71306171 C18.3887032,7.13140422 17.0724708,7.30023444 15.5017248,6.85041406 C13.9258649,6.39901951 12.0132762,5.20697584 11.9597772,3.38683653 C11.9074583,1.56669721 12.6084524,0 12.6084524,0 C12.4990942,1.94567973 12.3649533,1.9047512 12.9152848,3.481287 C13.5368171,5.26285904 16.2845408,5.75636276 17.2785992,5.90433516 C18.2726576,6.05230757 19.2718299,5.61822894 21.2914166,6.82444018 C23.3121835,8.03183206 23.7980015,9.6925862 23.7980015,9.6925862 L23.7983949,9.69219266 Z" id="路径" fill="url(#linearGradient-5)"></path>
                        <path d="M18.4438585,12.768284 C18.4109552,12.7462746 18.3767617,12.7242651 18.3438585,12.6952527 C18.3703101,12.7142608 18.4032133,12.7392715 18.4438585,12.768284 Z" id="路径" fill="url(#linearGradient-6)"></path>
                        <path d="M18.3994547,12.728418 C18.3714547,12.7194142 18.3454547,12.7064086 18.3174547,12.693403 C18.3364547,12.6994056 18.3644547,12.7124112 18.3994547,12.728418 Z" id="路径" fill="url(#linearGradient-7)"></path>
                    </g>
                    <g id="编组">
                        <path d="M38.1038666,33.6999286 C43.0053179,34.7951605 46.6727521,39.1717593 46.67,44.4058897 C46.6688183,45.9426776 46.3493979,47.4121695 45.7852983,48.7262117 C45.7121306,48.570762 45.6574515,48.2626173 45.6425032,47.9552597 C45.6090663,47.2862355 45.6873479,46.6498755 45.6873479,45.9548774 C45.6873479,43.867522 45.410412,41.8482496 44.1067676,40.3925317 C41.9978847,38.0391407 39.3469313,40.3626223 39.2041362,40.549162 C39.0613411,40.7357017 38.8748814,40.9568732 38.6486908,40.8451068 C38.5232042,40.782927 38.5117963,40.6424319 38.5306783,40.5168915 C38.5507405,40.3901704 38.6089599,40.2705331 38.6911753,40.1725408 C40.3264348,38.2256804 42.6146966,38.4082847 42.6839306,38.4145814 C42.6516738,38.3799495 42.6205972,38.3425629 42.5871603,38.3075375 C42.038009,37.7392605 41.6155243,37.1339904 40.9554412,36.6951892 C40.3988158,36.3158131 39.6753993,36.0053072 38.9893535,35.845922 C38.717138,35.7837422 38.4339081,35.7491103 38.1443842,35.7451749 L38.1058334,35.7451749 C35.9521059,35.7451749 34.2074882,37.4905409 34.2074882,39.6451923 C34.2074882,40.8946933 34.7951903,42.0060606 35.7086068,42.7199487 C36.3285656,43.2047945 37.0980069,43.5058554 37.9366822,43.5416678 C38.0747568,43.5479645 38.2049639,43.6164411 38.2686907,43.7368655 C38.4016514,43.989127 38.0188976,44.025333 38.0188976,44.025333 C37.0295597,44.025333 36.1126028,43.7183689 35.3557495,43.1961365 C34.1292066,42.34805 33.3239681,40.9332606 33.3239681,39.3283897 C33.3239681,39.1083988 33.3400965,38.8931304 33.369993,38.6817975 C33.4994133,37.7431959 33.9041961,36.8939287 34.502126,36.2190014 C34.6390204,35.8160127 34.758213,35.4059403 34.8561634,34.9868163 C34.975356,34.4846546 35.0650454,33.9722608 35.1260186,33.451209 C35.1858115,32.9376346 35.2180683,32.4169763 35.2180683,31.8884472 C35.2180683,29.0773651 34.3518567,26.4701385 32.8743406,24.3154871 C35.7699733,26.5185443 37.7407815,29.8742909 38.1050467,33.6999286 L38.1038666,33.6999286 Z" id="路径" fill="url(#linearGradient-8)"></path>
                        <path d="M44.5984862,50.8123865 C44.6047802,51.0138808 44.6071405,51.2165558 44.6071405,51.4180502 C44.6071405,51.6404023 44.6036001,51.863148 44.5973061,52.0855002 C44.596126,52.1527961 44.5910121,52.2196985 44.5886518,52.2869945 C44.583538,52.4424442 44.5776373,52.5967133 44.5685897,52.7521631 C44.5650493,52.8241816 44.5587553,52.8962001 44.5536415,52.9686121 C44.5438071,53.1177651 44.5335794,53.2669182 44.5213847,53.4160712 C44.5139106,53.5006831 44.5040762,53.5837208 44.4966021,53.6683327 C44.482834,53.8052859 44.4706394,53.9418455 44.454511,54.0787987 C44.4458568,54.1547526 44.4344489,54.230313 44.4257946,54.3062669 C44.407306,54.4503039 44.3896041,54.5947344 44.3699354,54.7375907 C44.3612811,54.79859 44.3498733,54.8568344 44.341219,54.9178337 C44.3164364,55.0768253 44.2928339,55.2362105 44.2652977,55.3952021 C44.2578235,55.4361307 44.2491693,55.4774528 44.2416952,55.5183813 C44.2106186,55.6950824 44.1783618,55.8713899 44.1421713,56.048091 C44.1370575,56.0717037 44.1311568,56.0953163 44.126043,56.1189289 C44.0874922,56.3105846 44.0603493,56.4994856 43.9966226,56.6832705 C43.9517779,56.8127463 43.8849041,56.9367126 43.8251112,57.0587111 C43.8251112,57.0598917 43.823931,57.0610724 43.823931,57.0610724 C43.7629579,57.1842515 43.7019848,57.3074307 43.6398316,57.4290356 C43.6386515,57.4302163 43.6374713,57.4325775 43.6362912,57.4341517 C43.5729578,57.5585115 43.5084444,57.68051 43.4435375,57.802115 L43.4435375,57.8032956 C43.1827299,58.2881414 42.9054006,58.7619679 42.6135165,59.2243817 C42.6123363,59.226743 42.6099761,59.2294978 42.6084026,59.2330397 C42.0207005,60.160622 41.3692716,61.0405856 40.6635571,61.8674208 L40.5927496,61.950852 C40.5294162,62.0279866 40.4621491,62.1023663 40.3940953,62.175959 L40.3940953,62.1771396 C39.8547783,62.7851645 39.2855648,63.3632801 38.6892084,63.9091252 L38.6829144,63.9154219 C38.4866204,64.0944842 38.2863925,64.2711853 38.0849846,64.443951 C38.0814442,64.4463122 38.0775105,64.449067 38.0751502,64.4514283 C37.871382,64.6253746 37.6636801,64.795779 37.4551914,64.9622479 C37.4528311,64.9634286 37.451651,64.9646092 37.4488974,64.967364 C37.3470133,65.0468598 37.2451292,65.1279298 37.1420649,65.206245 C37.1385246,65.2097869 37.1334107,65.2125417 37.1294769,65.2160836 C36.8124168,65.4585064 36.489456,65.693452 36.1602012,65.9197396 C36.1550873,65.9221008 36.1515469,65.9260363 36.1464331,65.9283975 C36.0496628,65.9956935 35.9524992,66.0602347 35.8545489,66.1259565 C35.8396006,66.1346144 35.8258325,66.1460272 35.8108843,66.1546851 C35.7113604,66.2204069 35.6122299,66.2853416 35.5127061,66.3487021 L35.4717951,66.374676 C35.3750249,66.4368559 35.2766811,66.4978552 35.1783374,66.5572803 C35.162209,66.5682995 35.1449006,66.5785316 35.1271987,66.5895509 C35.0276748,66.6505501 34.9285444,66.7099752 34.8278404,66.7697938 C34.811712,66.7784518 34.7967638,66.7882904 34.7806354,66.7973419 C34.6885857,66.8520445 34.5953558,66.9055664 34.502126,66.9590883 C34.4785235,66.9728624 34.454921,66.9866364 34.4301384,67.0000169 C34.3294344,67.0570807 34.2275503,67.1129639 34.1268463,67.1692406 C34.1095378,67.1778986 34.0934094,67.1877372 34.0772811,67.1967887 C33.9891651,67.2440139 33.9006557,67.2912392 33.8113596,67.3372838 C33.780283,67.3534191 33.7503865,67.370735 33.7193099,67.3868703 C33.6248999,67.4352761 33.53049,67.4825014 33.4372601,67.5309072 C33.4112974,67.5435006 33.3849412,67.5568811 33.3589785,67.5706551 C33.2708625,67.6143385 33.181173,67.6564477 33.0930571,67.700131 C33.0608003,67.7162663 33.0273635,67.7324016 32.9935332,67.7485369 C32.9054172,67.790646 32.8157278,67.8319681 32.7264317,67.8728966 C32.6929948,67.8878513 32.660738,67.9039866 32.6269078,67.9189413 C32.5313177,67.9626246 32.4341541,68.0059144 32.338564,68.0484171 C32.3110278,68.0594363 32.2838849,68.0720297 32.2563486,68.0846231 C32.1741333,68.1208291 32.0911312,68.155461 32.0089158,68.1904864 C31.9668247,68.2078023 31.9255203,68.2266924 31.8834292,68.2440083 C31.7976735,68.2786401 31.7107377,68.3136655 31.6249819,68.3482974 C31.5852511,68.363252 31.5467003,68.3793873 31.5069695,68.3955226 C31.4188535,68.4301544 31.3279839,68.4639992 31.2386878,68.498631 C31.2024973,68.5124051 31.16552,68.5273597 31.1281494,68.5407402 C31.0549817,68.5682883 30.9814206,68.5942621 30.9082529,68.620236 C30.8547539,68.6403067 30.8000748,68.6599839 30.7465758,68.6800546 C30.6808822,68.7024866 30.6147952,68.7249186 30.5502817,68.7473506 C30.4869483,68.7697826 30.4247951,68.791034 30.3626419,68.8118918 C30.2768861,68.8406204 30.1923105,68.867775 30.1077349,68.895323 C30.0628902,68.909097 30.0196189,68.9240517 29.9747742,68.9374322 C29.8941324,68.9634061 29.8130971,68.9870187 29.7324553,69.0122055 C29.68289,69.0271601 29.6341115,69.0421148 29.5857264,69.0570694 C29.5160991,69.0783208 29.4452916,69.0968174 29.3756642,69.1168881 C29.3146911,69.134204 29.253718,69.1530941 29.1943184,69.1692294 C29.1097428,69.192842 29.0251672,69.215274 28.940985,69.237706 C28.89378,69.2502994 28.846575,69.2624992 28.8005501,69.2750926 C28.7061401,69.2987052 28.6117302,69.3223179 28.5185003,69.3447498 C28.4799496,69.3545884 28.4413988,69.3648206 28.4040282,69.3734785 C28.3159122,69.3947299 28.2274029,69.4144071 28.1392869,69.4344778 C28.0944422,69.4443164 28.0499908,69.4557292 28.0051461,69.4655677 C27.9107361,69.4856385 27.815146,69.5053157 27.7191625,69.5253864 C27.6806118,69.5328637 27.6432412,69.5415217 27.6046904,69.548999 C27.5091003,69.5690697 27.4146903,69.5863856 27.3187069,69.6037016 C27.2801561,69.6111789 27.2404253,69.6198368 27.2018745,69.6273142 C27.090156,69.6473849 26.9768641,69.6670621 26.8651456,69.6855586 C26.8427232,69.6891005 26.8203009,69.693036 26.7966984,69.6965779 C26.7184168,69.7103519 26.638955,69.7213711 26.5594933,69.7339645 C26.5036341,69.7426225 26.4477748,69.7512804 26.3903421,69.7599384 C26.3120605,69.7709576 26.2337789,69.7811897 26.1554973,69.792209 C26.0984579,69.7996863 26.0410252,69.8083442 25.9828057,69.8158216 C25.8860355,69.828415 25.7888719,69.8394342 25.6921016,69.8504534 C25.6523708,69.8539953 25.6126399,69.860292 25.5740892,69.8642274 C25.4906937,69.8728854 25.4065115,69.8815434 25.323116,69.8890207 C25.269617,69.8941368 25.216118,69.9000399 25.162619,69.905156 C25.0768633,69.9138139 24.9911076,69.9201106 24.9053518,69.9264073 C24.853033,69.9315234 24.8011075,69.9350653 24.7499688,69.9390007 C24.676801,69.9452974 24.60442,69.9488393 24.5324324,69.9539554 C24.4667388,69.9574973 24.4006518,69.9626134 24.3361384,69.9665488 C24.2763454,69.9689101 24.2169458,69.9716649 24.1583329,69.9740261 C24.0788712,69.977568 23.9994094,69.9826841 23.9195543,69.9850453 C23.8636951,69.9874066 23.8078359,69.9874066 23.7519766,69.9901614 C23.5308999,69.9964581 23.3082497,70 23.0859929,70 C10.3571678,69.9984258 0,59.6383896 0,46.9021369 C0,45.1217455 0.2037682,43.3452896 0.6065841,41.6231426 C1.3980544,38.2339448 2.98768239,35.0100354 5.19962946,32.2997003 C5.72399821,31.6570436 6.29085144,31.0364253 6.8872078,30.4472905 C9.31944482,27.4685587 11.2615367,22.0600885 11.9849532,18.304108 C12.0644149,20.4028762 12.8460508,24.2084432 14.6008963,25.3871064 C15.3628634,25.897926 16.2066526,26.2375542 17.1114149,26.3965458 L17.125183,26.3977264 C17.5925124,26.3752945 18.07479,26.4052038 18.5554942,26.4898157 C19.8666127,26.7223999 21.055785,27.3512827 21.9928041,28.3087743 C22.348415,28.6716216 22.6599679,29.0746103 22.9188086,29.5071147 C23.3601752,30.2418607 23.6445853,31.0462639 23.764958,31.895531 L23.764958,31.8967117 C23.8098027,32.2048563 23.8322251,32.5145752 23.8322251,32.8168167 C23.8322251,33.1674641 23.8023286,33.522834 23.7441091,33.8762361 C23.7291609,33.9671447 23.7130325,34.0576598 23.6929704,34.1473877 C23.6906101,34.036802 23.6854963,33.9187389 23.6756619,33.7857211 C23.6135087,32.927796 23.3884982,32.1048962 23.0069246,31.3390603 C22.7225145,30.7660608 22.3543156,30.2387123 21.9157026,29.7711825 C21.3118721,29.1285257 20.5994702,28.6224286 19.7969854,28.2682393 C18.9669643,27.9014567 18.0846244,27.714917 17.1747482,27.714917 C16.9151208,27.714917 16.6429054,27.7322329 16.3655761,27.7672583 C16.2821806,27.7574197 16.2066526,27.7534843 16.1358451,27.7534843 C15.736963,27.7534843 15.3502755,27.8680055 15.0147267,28.0868157 C14.5426768,28.3937798 14.2118485,28.887677 14.1076041,29.4406058 C14.093836,29.518921 14.0828215,29.6023523 14.0777076,29.6940479 L14.0765275,29.7188412 C14.0741673,29.753473 14.0714136,29.789679 14.0714136,29.8270657 C14.0714136,30.2745248 14.2142087,30.704668 14.4754097,31.0592508 C13.7122624,30.6291076 12.8547051,30.4040007 11.9700049,30.4040007 L11.9401084,30.4051813 C11.8433382,30.4063619 11.727686,30.4075425 11.6132139,30.4189553 C11.1321164,30.4610645 10.5035033,30.6015596 10.1183892,30.7522868 C9.89613243,30.8380793 9.6785961,30.9400071 9.47482791,31.0545283 C6.7632947,32.4134345 4.48644076,34.6440398 3.06596399,37.3366653 C1.95861364,39.4366142 1.37209166,41.8112565 1.37209166,44.2020341 C1.37209166,46.7581 2.03571512,49.274418 3.29215456,51.4814107 L3.34565355,51.4503207 L3.40544653,51.43025 C2.93064302,49.9717773 2.68950421,48.4475828 2.68950421,46.9021369 C2.68950421,42.9698489 4.22681333,39.2847063 7.01662814,36.5255719 C8.12004474,35.4338819 9.38159805,34.5326669 10.7647042,33.8451462 C10.8614744,33.7967403 10.9609983,33.7495151 11.059342,33.7034705 C11.1513917,33.6597871 11.2434415,33.6200392 11.3362779,33.5802913 C11.4393422,33.536608 11.5412263,33.4933182 11.6431104,33.4449123 C12.1151603,33.2198054 12.8783076,33.0159498 13.4203782,32.9710858 C14.2267967,32.9037898 15.0544575,33.1686447 15.6338988,33.6810385 C16.3384332,34.3028374 16.7436094,35.1989363 16.7436094,36.1391121 C16.7436094,36.6389125 16.633071,37.1186422 16.4178949,37.5653142 C16.2648721,37.8809362 16.0599238,38.1733391 15.8152446,38.4256006 C15.9769217,38.1198172 16.0862799,37.788847 16.1370253,37.4472511 C16.1594476,37.2969174 16.1704621,37.143829 16.1704621,36.9934953 C16.1704621,36.4913336 16.0473358,36.0049137 15.8211452,35.5735898 C15.5937745,35.142266 15.2645197,34.7656448 14.8518694,34.4807192 C14.3459893,34.1324331 13.7543535,33.9486482 13.1406886,33.9486482 C12.4385144,33.9486482 11.7536487,34.1950065 11.2131516,34.6436462 C11.0365263,34.790438 10.8752426,34.9592682 10.7336276,35.1446273 C10.5621161,35.3697342 10.4240415,35.615699 10.3209773,35.8793733 L10.3780167,35.9018052 L10.4055529,35.9576884 C10.560936,35.8817345 10.7261535,35.8195546 10.8964848,35.7723294 C11.1262157,35.7089689 11.3649943,35.6739435 11.6061331,35.6680403 L11.6309157,35.6680403 C11.6446839,35.6668597 11.658452,35.6668597 11.6718267,35.6668597 C12.3216821,35.6668597 12.9369204,35.8781926 13.4514548,36.2796071 C13.7299642,36.4972368 13.964809,36.7593368 14.147335,37.0592171 C14.3475628,37.3850712 14.4793434,37.7467378 14.5399232,38.1245397 C14.282656,37.6396939 13.8963618,37.2280473 13.4250987,36.9435152 C13.3295086,36.8852708 13.2264444,36.8317489 13.1182663,36.7817688 C12.8236285,36.6463898 12.510502,36.5605973 12.1887214,36.5255719 C11.7973133,36.4846434 11.41928,36.5169139 11.0479341,36.6200224 C10.7682446,36.6983376 10.4999629,36.8187619 10.2537102,36.9742116 C10.2151595,36.9978243 10.1777889,37.0237981 10.1392381,37.0501656 C9.67584248,37.3732649 9.31157732,37.8171821 9.08656688,38.3342985 C9.03818176,38.3677497 8.99333702,38.4000202 8.94849229,38.4326844 C8.92370967,38.4500003 8.89617342,38.4688904 8.8713908,38.4862063 C8.80058332,38.537367 8.73331621,38.5881341 8.6676226,38.6392948 C8.51459977,38.7585385 8.36315043,38.8828983 8.22035534,39.0111935 C6.01076851,40.9667118 4.74331458,43.9430823 4.74331458,47.1744691 C4.74331458,50.8348185 6.43718691,54.2413322 9.16248823,56.0650134 L9.19710522,56.0126721 L9.24667046,55.9764661 C8.0673325,54.3129571 7.44343991,52.3535034 7.44343991,50.3094377 C7.44343991,47.4550657 8.68257085,44.7506339 10.8410189,42.8872048 C10.9999424,42.7502516 11.1478514,42.6310079 11.2910398,42.5216027 C12.2406468,41.7955147 13.3003988,41.2583277 14.4439397,40.9226349 C14.4376457,40.927751 14.4313517,40.9324735 14.4266312,40.9375896 L13.097024,42.2032259 C11.6356362,43.8793283 10.7729651,46.0237475 10.6675406,48.2429401 L10.7296938,48.246482 L10.6675406,48.25514 C11.0923855,51.1583114 12.273297,53.914691 14.0824281,56.2271534 C14.3522833,56.5715041 14.6441675,56.9158547 14.9498198,57.2491862 C15.4765488,57.8221857 16.043402,58.3617341 16.636218,58.8516959 C17.188123,59.307813 17.7770052,59.7344143 18.3883098,60.1196935 C19.0393453,60.5313401 19.717917,60.8965486 20.405143,61.2102029 C22.588767,62.2011458 24.9210868,62.7044881 27.3371955,62.7044881 C31.7339468,62.7044881 35.8946731,61.0122505 39.053867,57.9414295 C42.0887543,54.9898522 43.8880511,51.0709447 44.1539726,46.8600278 L44.1689208,46.9348011 C44.1850492,47.0154775 44.1999974,47.0965475 44.2149457,47.1760433 C44.2361879,47.2941064 44.2586103,47.4121695 44.278279,47.5302326 C44.2920472,47.6148445 44.3058153,47.6994563 44.31919,47.7836747 C44.3376787,47.8993765 44.3553805,48.0150783 44.3715089,48.1303866 C44.3840969,48.2161791 44.3951114,48.3019717 44.4061259,48.3889448 C44.4222543,48.5046466 44.4360224,48.6187743 44.4497905,48.7356567 C44.4596249,48.8214493 44.4698526,48.9072418 44.4785069,48.9930343 C44.4910949,49.1099167 44.5021094,49.2279798 44.5119437,49.3448623 C44.5194179,49.4294742 44.5280721,49.5140861 44.5343661,49.5983044 C44.5442005,49.7203029 44.5516746,49.8430885 44.5591487,49.9650871 C44.5642626,50.0445829 44.5701632,50.1240787 44.574097,50.203968 C44.5815711,50.3393471 44.586685,50.4751196 44.5902253,50.6104986 C44.5925856,50.6777946 44.5965193,50.7435164 44.5976995,50.8108123 L44.5984862,50.8123865 Z" id="路径" fill="url(#linearGradient-9)"></path>
                        <path d="M40.2772629,9.32659062 C41.2453585,7.8346667 43.0584235,9.17350214 42.0753796,10.0837686 C41.0911556,10.9924608 40.2347784,10.4592092 39.8968694,10.5178472 C39.5577802,10.574911 39.7115898,10.8932878 38.4417756,11.4753389 C37.1727482,12.0569964 35.291236,11.8023736 34.670097,12.0585705 C34.0674467,12.3061095 33.9108835,13.3726127 34.3011114,13.3875674 C34.7062875,13.4037027 34.5658527,13.4324314 35.032002,12.7921359 C35.4969711,12.1518404 35.8458946,12.5918222 35.8671369,12.7610459 C35.8883791,12.9302697 35.8856255,13.8901226 36.3741971,13.5654491 C37.2529967,12.9810368 37.3371789,13.2584851 37.3721893,13.7047636 C37.3969719,14.0392757 37.2427689,14.8771301 36.777013,15.327344 C36.7372822,15.5835409 36.6267438,16.0494965 36.332106,16.2313137 C36.047696,16.4080148 35.7841348,16.4949879 35.9308636,16.1207279 C36.006785,15.9278916 36.0040313,15.7354487 36.006785,15.5737023 C35.8875924,15.5599283 35.7621058,15.535135 35.6326854,15.5005032 C35.4761222,15.7216747 34.9702421,16.4119502 34.8384615,16.0514643 C34.7727679,15.8724019 34.714155,15.4410781 34.7912565,15.2234485 C34.6358734,15.1687459 34.4930783,15.1215207 34.3738857,15.0939726 C33.8109663,14.9672515 33.1835333,15.729152 33.1835333,15.729152 C32.6154999,15.9778716 32.8031398,15.3848013 32.6465765,15.0514699 C32.4911935,14.7181384 32.3830154,14.443445 31.6686465,14.0939782 C31.1541122,13.8428974 31.1505718,14.0282564 30.7379215,14.1860674 C30.9267415,14.4221936 31.35434,14.9420648 31.5529943,15.0888565 C31.8114416,15.2789381 31.8326839,15.4591811 31.6163277,15.4009366 C31.3987914,15.3426922 30.2941946,14.7980278 30.1671345,14.3592266 C30.1620207,14.344272 30.1584803,14.3316786 30.1545465,14.3194787 C30.1108819,14.3245948 30.0664306,14.3293173 30.0192256,14.3332528 C29.4712543,14.3753619 28.8123514,14.2659568 28.2360571,14.1565517 C28.4807363,14.3541106 28.8363472,14.5780369 29.2462439,14.6339201 C30.0192256,14.7397833 30.9102197,14.9408841 31.2792054,15.9668524 C31.6493712,16.9936077 31.9404686,17.6862445 32.502208,17.586678 C33.0627672,17.4859308 33.4962663,17.2797139 33.6292271,17.1104902 C33.7621878,16.9412664 33.9746102,17.4387056 33.2338853,17.8503522 C32.4931603,18.2631795 31.5411931,17.9798281 31.2556029,17.5307948 C30.9711928,17.082155 30.9015655,16.2006173 30.3520207,15.8724019 C29.8012959,15.5441865 29.8835112,15.5465478 28.931544,15.4198267 C28.0267817,15.2994024 27.0586861,14.5855142 27.0374438,13.9826054 C26.9453941,13.9877214 26.8785203,14.0073986 26.8446901,14.0471465 C26.6236134,14.3171175 27.2262638,15.3639435 28.1621027,15.5862957 C29.0979415,15.8086478 29.991296,15.4757099 30.610468,16.6020318 C31.1226422,17.5343367 31.5998059,18.4009198 32.5281707,18.8401145 C32.6103861,18.8365726 34.1087511,18.7617993 34.5564117,17.9436221 C35.016267,17.1018322 34.7538859,18.4036746 34.3738857,18.7295287 C34.1476952,18.9223651 33.9750036,19.0726988 33.8184404,19.1734459 C34.6881923,19.3029218 35.1755838,19.2702577 34.8313808,19.4544361 C34.5158941,19.6220857 34.2920638,20.0526224 34.2920638,20.0526224 C33.4667632,21.9573736 33.0021875,22.0628433 32.5781293,22.1687065 C32.1556447,22.2745698 32.0710691,22.2954276 32.4723115,21.4713472 C32.8751274,20.6468733 31.7315865,21.221447 31.7315865,21.221447 C30.1494327,21.7212474 29.9743808,21.3170781 29.9743808,21.3170781 C30.0739047,21.3009428 30.6092879,21.0707198 30.6092879,21.0707198 C31.3787292,20.752343 31.5502407,19.995165 30.379557,20.0660029 C29.2100534,20.1380214 29.2785006,19.8184639 29.2785006,19.8184639 C29.2785006,19.8184639 29.6376519,20.1368407 30.1883768,19.5760411 C30.7375281,19.0152414 29.912621,18.8873397 28.8662437,18.8660883 C27.8186864,18.844837 28.4795562,18.5862788 28.4795562,18.5862788 C30.3996191,17.4276864 29.0188732,17.3643258 27.9241108,17.586678 C23.0537362,19.1730524 22.4672142,18.3961972 22.4672142,18.3961972 C22.4672142,18.3961972 26.4812117,17.3481905 24.9104657,16.1419793 C23.5222457,15.0766567 19.4236726,13.1805634 18.4878337,12.7539621 C20.2686419,13.5249141 21.9015411,13.1195642 22.783881,12.9192505 C23.6984776,12.7142142 22.7417899,11.9247657 22.7417899,11.9247657 C11.4554705,7.88307256 7.11733211,3.65720101 6.98555152,3.52693806 C12.4125517,7.74651292 22.9211688,9.88266778 24.3864903,10.1786126 C25.8506317,10.475738 25.5335716,10.1262713 25.5335716,10.1262713 C21.7677936,3.90355932 15.0123664,2.62926503 14.7189087,2.45768 C14.4254511,2.28491435 14.6182048,2.16921252 14.6182048,2.16921252 C23.5659103,3.92481068 28.6848979,9.44858915 28.7903224,9.60758077 C28.8973203,9.76539177 29.3941529,9.73430183 29.3941529,9.73430183 C31.0754372,9.80750094 31.1179217,10.7811279 31.1065138,11.0880919 C31.0966794,11.395056 30.9275282,11.9448364 31.1065138,11.9558556 C31.2866795,11.9668749 32.259889,11.9235851 32.4286468,12.4320434 C32.5977981,12.9393212 32.7055828,12.8795026 32.7055828,12.8795026 C33.1815664,13.0062236 33.3318356,12.3399542 34.1795585,11.7854513 C34.7759149,11.395056 36.5952738,11.6276403 37.5846117,11.4422812 C38.5739496,11.2569222 39.5097885,10.4950217 39.6687119,10.3045466 C39.8264553,10.114465 40.2764762,9.32619708 40.2764762,9.32619708 L40.2772629,9.32659062 Z M41.3735988,10.2132444 C41.8023774,9.98341495 42.11039,9.59026485 41.7178018,9.20498564 C41.7178018,9.20498564 41.4927914,8.89526679 40.9574081,9.28841689 C40.5534121,9.5843617 40.1879668,9.90391913 40.2591677,10.1849093 C40.3311553,10.4670801 40.9452135,10.4434675 41.3739921,10.213638 L41.3735988,10.2132444 Z M29.0924343,12.4560496 C29.7422896,12.5804094 29.8603021,12.6587246 29.7214408,12.4139404 C29.7214408,12.4139404 29.1298049,11.2525932 28.4315645,10.9967898 C27.733324,10.7394123 27.2895971,10.8661333 27.0150214,11.088879 C26.7392656,11.3112312 26.8446901,11.5863182 27.6066573,11.9243722 C28.3686245,12.2636068 28.4429723,12.3309027 29.0928277,12.4564432 L29.0924343,12.4560496 Z" id="形状" fill="url(#linearGradient-10)"></path>
                        <path d="M28.7187281,34.2654508 C28.7734073,34.2319996 30.8177766,32.9214993 30.0919999,28.4520242 C29.6632213,25.8089852 26.2742965,24.219856 26.2742965,24.219856 C26.2742965,24.219856 31.4452096,28.3300257 28.7187281,34.2654508 Z M36.3962261,45.0111598 C38.6805542,47.4243693 39.3787946,52.0579521 36.6495596,55.6140124 C33.9203245,59.1684985 28.2612331,61.486077 22.2335495,59.4967139 C16.2644787,57.5274216 13.7295709,53.0217405 13.9840844,47.9430599 C14.2374179,42.8643792 18.4044382,42.1866971 18.4044382,42.1866971 C18.4044382,42.1866971 13.1375416,49.9957835 18.6577716,54.3759241 C18.6577716,54.3759241 19.799739,55.2649392 18.7844384,53.6773842 C17.7691377,52.0910098 16.3101102,49.6467103 18.5000283,44.8214717 C20.6883729,39.9962332 25.5437993,36.2827555 25.5437993,36.2827555 C25.5437993,36.2827555 28.7800946,32.9494409 27.1928269,29.076578 C25.6071327,25.2037151 22.1163238,24.7597978 20.1490559,22.9821612 C18.1829681,21.2057053 19.4508154,24.5972643 21.2575864,25.9337385 C21.1667168,25.8900552 18.228993,24.4654272 17.1987441,21.870794 C16.1511868,19.2364129 15.9285366,18.9825773 15.3258862,19.6492402 C14.7232359,20.3155096 15.008826,22.9475294 15.5158863,23.553193 C15.4474391,23.5047872 12.3106676,21.225776 15.0721594,13.6256613 C15.0721594,13.6256613 15.9607933,12.2171686 14.8286603,12.7539621 C13.6977075,13.2899686 11.1277892,15.6284049 11.1277892,15.6284049 C11.1277892,15.6284049 11.6348495,13.6925637 14.1626766,12.2742324 C14.1626766,12.2742324 14.6496747,11.7559355 13.8979353,11.7767933 C13.147376,11.7980447 11.4983484,12.2431425 11.4983484,12.2431425 C11.4983484,12.2431425 13.0317238,10.6677873 16.7538371,9.74177915 L21.9574003,12.1947366 C21.9574003,12.1947366 22.3810651,12.7543557 21.0699465,12.7094917 C19.7576479,12.6658084 18.4776059,12.7693103 17.7380611,12.3253931 C17.7380611,12.3253931 18.3619537,13.099887 20.244646,14.0310112 L18.8241692,14.7208932 C18.8241692,14.7208932 18.4898005,15.0365152 19.3882688,14.8665044 C20.2867371,14.6972806 22.0006716,14.164029 22.7189741,15.8385572 C22.8358065,16.1581146 22.8358065,16.1679532 22.0219138,16.1892045 C21.206841,16.2104559 19.4405877,15.4060527 20.3182071,17.226192 C21.1970066,19.0463313 21.4503401,20.1789499 24.9301345,21.5016501 C28.4099288,22.8231696 31.4979218,24.6433089 32.6823737,28.3894508 C33.8680056,32.1355926 33.0427051,34.8443535 29.6998052,38.1453975 C26.3580854,41.4464415 21.5176072,47.710082 24.9749792,51.9953787 C28.4311711,56.2810689 35.6649422,53.6140236 35.6338656,49.5199892 C35.6016088,45.4247741 31.8570731,44.5680296 30.7473625,46.7262229 C29.6364718,48.8844162 31.7626631,50.1228981 31.7626631,50.1228981 C31.7626631,50.1228981 29.6053952,50.153988 29.4460783,47.1067796 C29.2871549,44.0595713 34.1099312,42.5999179 36.3954394,45.0119469 L36.3962261,45.0111598 Z M34.9855837,54.8418798 C33.5017736,55.9855176 31.6438639,56.6671352 29.6242772,56.6671352 C24.7676706,56.6671352 20.8307746,52.7285505 20.8307746,47.8698607 C20.8307746,44.7628337 22.4424316,42.0340022 24.8734885,40.4684856 C21.8087046,41.8844556 19.6825133,44.9840053 19.6825133,48.5821747 C19.6825133,53.5168184 23.6815625,57.517583 28.6140904,57.517583 C31.1096608,57.517583 33.3652725,56.4931889 34.9855837,54.8418798 L34.9855837,54.8418798 Z" id="形状" fill="url(#linearGradient-11)"></path>
                        <path d="M23.7983949,9.69219266 L21.4507334,9.23725621 C20.5522652,8.45410438 20.4826378,8.29471921 19.4362606,7.71306171 C18.3887032,7.13140422 17.0724708,7.30023444 15.5017248,6.85041406 C13.9258649,6.39901951 12.0132762,5.20697584 11.9597772,3.38683653 C11.9074583,1.56669721 12.6084524,0 12.6084524,0 C12.4990942,1.94567973 12.3649533,1.9047512 12.9152848,3.481287 C13.5368171,5.26285904 16.2845408,5.75636276 17.2785992,5.90433516 C18.2726576,6.05230757 19.2718299,5.61822894 21.2914166,6.82444018 C23.3121835,8.03183206 23.7980015,9.6925862 23.7980015,9.6925862 L23.7983949,9.69219266 Z" id="路径" fill="url(#linearGradient-12)"></path>
                        <path d="M18.4438585,12.768284 C18.4109552,12.7462746 18.3767617,12.7242651 18.3438585,12.6952527 C18.3703101,12.7142608 18.4032133,12.7392715 18.4438585,12.768284 Z" id="路径" fill="url(#linearGradient-13)"></path>
                        <path d="M18.3994547,12.728418 C18.3714547,12.7194142 18.3454547,12.7064086 18.3174547,12.693403 C18.3364547,12.6994056 18.3644547,12.7124112 18.3994547,12.728418 Z" id="路径" fill="url(#linearGradient-14)"></path>
                    </g>
                </g>
                <g id="GRAND备份-4" transform="translate(58.5246, 29.8361)" fill="#1944B4">
                    <path d="M9.73078844,5.3461231 C10.6499193,5.3461231 12.1053963,5.37140552 14.0958764,5.42108326 L14.1563161,5.42108326 L14.1867598,5.436164 C14.0452862,7.51863707 13.8733689,9.65078788 13.6714556,11.8335035 L11.1858178,13.7704918 L4.65295994,13.7704918 L4.65295994,13.7554111 C4.74384331,12.2939097 4.8096554,11.3127744 4.84994852,10.812005 C6.17380136,10.7618837 7.71971406,10.7370449 9.48813432,10.7370449 L9.65512691,10.7370449 C9.70526946,10.0863552 9.77108156,9.26046279 9.8521155,8.25936764 L9.3820291,8.25936764 C8.12891307,8.25936764 6.86594762,8.29928726 5.59268503,8.37957003 L5.59268503,8.36448929 L5.79012132,5.436164 C7.0629362,5.37628458 8.37649191,5.3461231 9.73078844,5.3461231 M9.2150365,0 C10.9530131,0 12.726358,0.0252824207 14.5355191,0.0754037108 C14.3940455,1.61718782 14.3027144,2.60808129 14.262869,3.04852767 L14.2324253,3.03344693 C12.4537079,2.95360771 10.7815435,2.91324455 9.2150365,2.91324455 L8.9123904,2.91324455 C7.76045488,2.91324455 6.45137619,2.93852697 4.98649743,2.98864826 C4.96635087,3.01880974 4.89068934,3.79945992 4.75906515,5.33104236 C4.48641504,8.3343278 4.27420461,11.1326926 4.12288156,13.7252496 C4.11258443,13.7456529 4.10765972,13.7602901 4.10765972,13.7704918 L2.81917528,13.7704918 C2.8594684,13.6502894 2.87961496,13.5504904 2.87961496,13.4697641 C2.87961496,13.270166 2.77843446,13.1397619 2.57652116,13.0798825 C2.54607747,13.0696808 2.50578435,13.0643582 2.4551941,13.0643582 L2.37953258,13.0643582 C2.25820552,13.0643582 1.62157422,13.2497626 0.469638697,13.6201279 C0.449492137,13.6201279 0.292796671,13.6702492 7.10542736e-15,13.7704918 L7.10542736e-15,13.7554111 C0.292796671,9.33054389 0.616037032,5.29644536 0.969721084,1.65222837 C2.53622804,0.570850446 3.31925767,0.0252824207 3.31925767,0.0150807422 C3.92544527,0.0252824207 4.38523454,0.0301614843 4.69862547,0.0301614843 L5.27436938,0.0301614843 L5.27436938,0.0603229687 C6.50733885,0.020403357 7.82089456,0 9.2150365,0" id="Fill-24"></path>
                    <path d="M24.9988016,0 L28.3013943,0 C28.3112836,0.0301955255 28.818787,0.626557155 29.8230053,1.78908489 C30.0158476,2.0093346 30.112044,2.13455722 30.112044,2.16475275 L29.5645337,7.20118879 C29.4323761,7.32108279 28.8947552,7.82730189 27.9512215,8.71940205 L27.9512215,8.73449982 C28.7221411,9.97740093 29.4782267,11.6559169 30.2185792,13.7704918 L26.5055786,13.7704918 C26.4952397,13.7704918 26.4291609,13.5955354 26.3077916,13.2447344 C25.8510836,12.162136 25.2828956,11.0244752 24.6032277,9.83175193 C24.369929,9.43121716 24.2431655,9.20563882 24.2224878,9.15546097 L21.0727304,9.15546097 L21.0875645,9.12526544 L21.3159185,6.20873291 L21.331202,6.20873291 C22.3151922,6.15855506 23.334694,6.13368815 24.3901572,6.13368815 L26.1100047,6.13368815 L26.5361457,2.91653253 L26.5208621,2.91653253 C26.2367681,2.91653253 25.9319964,2.91164796 25.6078955,2.90143476 C24.3798183,2.90143476 23.0861118,2.94672805 21.7272255,3.03687058 C21.8791618,1.32283045 21.9650193,0.336147248 21.9856971,0.075044762 C22.949459,0.0248669034 23.9536773,0 24.9988016,0 M21.3617691,0.0301955255 C20.9455175,3.6683123 20.5701718,8.09328895 20.235732,13.3046814 C20.2150543,13.4347886 20.2051649,13.5853222 20.2051649,13.7558381 L20.1898814,13.7704918 L18.8961749,13.7704918 L18.8961749,13.7558381 C18.9366313,13.6656956 18.957309,13.575109 18.957309,13.4849665 C18.957309,13.2846991 18.8557184,13.1492633 18.6529868,13.0791031 C18.5716244,13.0693339 18.5257738,13.0640053 18.5158845,13.0640053 C18.3837268,13.0640053 17.9526412,13.1794588 17.222178,13.4099217 C16.4714866,13.6501538 16.085802,13.7704918 16.0655738,13.7704918 L16.0655738,13.7558381 C16.3901242,8.72473067 16.7758088,4.13945131 17.222178,0 C18.4399163,0 19.8194803,0.0102131925 21.3617691,0.0301955255" id="Fill-26"></path>
                    <path d="M38.4327492,2.99157729 C38.1877721,3.92364211 37.9215124,4.99647137 37.6357813,6.20873291 C38.1053584,6.19896377 38.6881412,6.19363515 39.383224,6.19363515 L40.5791286,6.19363515 C41.3656816,6.19363515 42.2142713,6.20384834 43.123992,6.22383068 L43.139388,6.13368815 C43.139388,5.59238895 43.159765,4.53021694 43.200519,2.94672805 C43.1901041,2.94672805 43.175161,2.94139943 43.1547839,2.93163029 C42.0403874,2.91164796 41.4376804,2.90143476 41.3457574,2.90143476 C40.5175447,2.90143476 39.546693,2.93163029 38.4327492,2.99157729 L38.4327492,2.99157729 Z M35.0293341,0 C36.2148238,0 37.6149515,0.0102131925 39.2301699,0.0301955255 C39.8328769,0.0102131925 40.4256217,0 41.0084045,0 L42.5108701,0 C42.7658093,0 42.9754662,0.00532862215 43.139388,0.0150977628 C43.251688,0.00532862215 43.399761,0 43.583607,0 C44.5549116,0 45.8373054,0.0102131925 47.431694,0.0301955255 C47.2985641,3.79841949 47.232452,7.50669646 47.232452,11.1545824 C47.232452,11.6661301 47.2374331,12.5378039 47.247848,13.7704918 L45.9446244,13.7704918 C46.0365474,13.6603669 46.0827353,13.5400289 46.0827353,13.4099217 C46.0827353,13.249619 46.0062082,13.1390501 45.8527014,13.0791031 C45.7707405,13.0591207 45.6842513,13.0489076 45.5918755,13.0489076 C45.4383686,13.0489076 44.7949076,13.2394058 43.6605869,13.6204023 L43.0932001,13.7704918 L43.0932001,13.7558381 C43.083238,13.3148946 43.0778041,13.0240406 43.0778041,12.8837203 C43.0778041,12.4227944 43.083238,11.1847779 43.0932001,9.17055873 C41.8153345,9.11016768 40.7376166,9.0804162 39.8586878,9.0804162 C39.071682,9.0804162 38.0904153,9.10528311 36.9153405,9.15546097 L35.9032818,13.7704918 L34.6000582,13.7704918 L34.6000582,13.7558381 C34.6716042,13.6656956 34.7073772,13.5502421 34.7073772,13.4099217 L34.7073772,13.3948239 C34.7073772,13.1745742 34.5747001,13.0640053 34.3088932,13.0640053 C34.1762162,13.0640053 33.5680753,13.2345212 32.4844707,13.575109 L31.7486339,13.7704918 L31.7486339,13.7558381 C32.7706546,9.09506991 33.8592403,4.5102346 35.0139381,0 L35.0293341,0 Z" id="Fill-28"></path>
                    <path d="M49.8815774,0 L49.8967833,0 C51.3708632,0.0102020071 52.5314328,0.0150812279 53.3793866,0.0150812279 L54.7568641,0.0150812279 L55.8932831,2.02753803 C56.5386403,3.22871348 57.3212981,4.77542647 58.2394674,6.66767701 L58.2546733,6.66767701 C58.4872344,4.12471584 58.7189011,1.90245255 58.9514623,0 L58.9818741,0 C61.7372765,0.0204040143 63.1147541,0.0350416767 63.1147541,0.0452436838 C62.5704716,4.52037629 62.1308415,9.09043192 61.7981002,13.7558541 L61.7676884,13.7704918 L57.7247022,13.7704918 C57.7045767,13.7607334 57.2497408,12.864731 56.3624305,11.0824847 C55.6455161,9.69101965 54.923682,8.31951504 54.1973757,6.96797087 C53.7729516,6.15713309 53.5256317,5.68651006 53.4549689,5.5561018 L53.439763,5.5561018 C53.2076491,7.84889201 52.9701684,10.587022 52.7282153,13.7704918 L51.4258729,13.7704918 C51.4665711,13.6604876 51.4866966,13.5704438 51.4866966,13.5003604 L51.4866966,13.4701979 C51.4665711,13.2000665 51.330165,13.064779 51.0779256,13.064779 L51.0323079,13.064779 C50.8708568,13.064779 50.456719,13.1752269 49.7907891,13.3952354 C49.7706636,13.3952354 49.3668123,13.5203208 48.579235,13.7704918 L48.579235,13.7558541 C48.9732472,8.7998965 49.4070632,4.21475964 49.8815774,0" id="Fill-30"></path>
                    <path d="M74.5572249,0 L75.7839247,0 C75.7940883,0 75.7989491,0.00532278633 75.7989491,0.0150812279 L75.828998,0 L77.3252537,0 C77.5744823,0.290535421 78.1926931,1.00600662 79.1803279,2.14730072 C78.8511163,5.46117878 78.591724,8.67969024 78.4021512,11.8032787 L76.2479142,13.7704918 L69.5006231,13.7704918 L69.4855987,13.7558541 L69.4855987,13.7106105 C69.6150738,12.2987414 69.6999176,11.3326557 69.7401301,10.8123533 C71.0963051,10.7622304 72.4878317,10.7373907 73.914268,10.7373907 C74.0340215,10.7373907 74.3627912,10.7422699 74.9014609,10.752472 C75.060543,8.58964644 75.2753038,5.97660192 75.5448597,2.91333839 L74.2730865,2.91333839 C73.0764355,2.91333839 71.8095232,2.95370285 70.4732335,3.03354464 C70.4732335,3.04374665 70.4683726,3.04862587 70.458209,3.04862587 L70.458209,3.03354464 L70.697716,0.0749625742 C71.8846453,0.0252832351 73.171001,0 74.5572249,0 M70.2337265,0.0301624559 L70.2337265,0.0452436838 C69.7847614,4.03955126 69.4056157,8.59984845 69.0967313,13.7256917 C69.0870096,13.7456521 69.0821487,13.7607334 69.0821487,13.7704918 L67.8099337,13.7704918 C67.8501461,13.6507291 67.8704733,13.5504833 67.8704733,13.4701979 C67.8704733,13.2701499 67.7706051,13.1397416 67.5708687,13.0798603 C67.5412617,13.0701018 67.5010493,13.064779 67.4511152,13.064779 L67.376435,13.064779 C67.2566815,13.064779 66.6283071,13.2501894 65.4913119,13.6205667 C65.4709847,13.6205667 65.3167635,13.6706896 65.0273224,13.7704918 L65.0273224,13.7558541 C65.3764193,8.42951929 65.755565,3.84438243 66.1643176,0 C66.473644,0 67.8302609,0.0102020071 70.2337265,0.0301624559" id="Fill-32"></path>
                    <path d="M92.0149,0.0613451402 L98.7687639,0.0613451402 C99.9144317,0.984248694 100.57454,1.51272572 100.748634,1.64586739 C100.472531,5.71782148 100.170586,9.37399184 99.8427992,12.6148329 C99.8124233,12.6148329 99.1622897,13.12786 97.8937584,14.1530055 C97.5968005,14.1430085 97.3873433,14.13801 97.2644798,14.13801 L96.7118209,14.13801 C96.4252906,14.13801 96.0258709,14.1325571 95.5149221,14.1225601 C95.8726316,10.8199195 96.1949782,7.16874765 96.4815085,3.1690445 L96.0825423,3.1690445 C94.4862239,3.1690445 93.0585595,3.13814473 91.8004557,3.07679959 L92.0149,0.0613451402 Z M89.0679903,0 C90.091248,0.00999698582 90.8792064,0.0149954787 91.4318653,0.0149954787 L91.4318653,0.0304453659 C91.0737024,3.34353735 90.7567963,6.99470921 90.4802401,10.983961 L90.4648255,10.983961 L90.4802401,10.983961 C91.8512332,10.983961 93.4067482,11.0148607 95.1458783,11.0762059 L94.9463952,14.0916603 L88.1929848,14.0916603 C87.8960269,13.8558223 87.2363725,13.3327982 86.2131148,12.522588 C86.4792434,8.74827141 86.7757478,5.09210105 87.1035349,1.55362248 C87.1543124,1.5227227 87.7582022,1.04604824 88.914751,0.12269028 C89.0063319,0.0408967602 89.0575627,0 89.0679903,0 L89.0679903,0 Z" id="Fill-34"></path>
                    <path d="M104.448176,0 C104.765888,0 106.161729,0.0102020071 108.63388,0.0301624559 L108.63388,0.0452436838 C108.182084,3.96946791 107.792558,8.54484632 107.464392,13.7704918 L106.140821,13.7704918 L106.140821,13.7558541 C106.181728,13.6653668 106.202636,13.575323 106.202636,13.4852792 L106.202636,13.4701979 C106.181728,13.2000665 106.043553,13.064779 105.787202,13.064779 L105.709933,13.064779 C105.576757,13.064779 105.027693,13.2249062 104.06365,13.5451605 C104.043196,13.5451605 103.780937,13.6205667 103.278689,13.7704918 C103.5964,8.98530689 103.976381,4.46537417 104.417723,0.21025006 C104.427723,0.0802853605 104.438177,0.0102020071 104.448176,0" id="Fill-36"></path>
                    <path d="M111.299122,0 C111.607515,0 112.962417,0.0102020071 115.362061,0.0301624559 L115.362061,0.0452436838 C115.023226,3.11870922 114.709538,6.68275824 114.420998,10.7373907 C115.755605,10.7373907 117.268453,10.7622304 118.961749,10.8123533 C118.872187,12.2441828 118.807331,13.230229 118.767624,13.7704918 L110.163934,13.7704918 C110.482916,8.98530689 110.826164,4.67562423 111.194559,0.84100024 C111.254562,0.330456318 111.289416,0.0501229046 111.299122,0" id="Fill-38"></path>
                    <path d="M121.661291,0 C121.979003,0 123.374843,0.0102020071 125.846995,0.0301624559 L125.846995,0.0452436838 C125.395199,3.96946791 125.005672,8.54484632 124.677507,13.7704918 L123.353935,13.7704918 L123.353935,13.7558541 C123.394842,13.6653668 123.41575,13.575323 123.41575,13.4852792 L123.41575,13.4701979 C123.394842,13.2000665 123.256667,13.064779 123.000316,13.064779 L122.923047,13.064779 C122.789872,13.064779 122.240808,13.2249062 121.276765,13.5451605 C121.256311,13.5451605 120.994051,13.6205667 120.491803,13.7704918 C120.809515,8.98530689 121.189496,4.46537417 121.630838,0.21025006 C121.640838,0.0802853605 121.651292,0.0102020071 121.661291,0" id="Fill-40"></path>
                    <path d="M128.679392,0 L128.694598,0 C130.16823,0.0102020071 131.329247,0.0150812279 132.177201,0.0150812279 L133.554678,0.0150812279 L134.69065,2.02753803 C135.336455,3.22871348 136.118665,4.77542647 137.037282,6.66767701 L137.052487,6.66767701 C137.284601,4.12471584 137.516715,1.90245255 137.748829,0 L137.779241,0 C140.535091,0.0204040143 141.912568,0.0350416767 141.912568,0.0452436838 C141.367839,4.52037629 140.928656,9.09043192 140.595467,13.7558541 L140.565055,13.7704918 L136.522516,13.7704918 C136.501944,13.7607334 136.047555,12.864731 135.159798,11.0824847 C134.442883,9.69101965 133.721496,8.31951504 132.994743,6.96797087 C132.570766,6.15713309 132.322999,5.68651006 132.252783,5.5561018 L132.237577,5.5561018 C132.005016,7.84889201 131.767983,10.587022 131.52603,13.7704918 L130.223687,13.7704918 C130.263938,13.6604876 130.284511,13.5704438 130.284511,13.5003604 L130.284511,13.4701979 C130.263938,13.2000665 130.127532,13.064779 129.875293,13.064779 L129.830122,13.064779 C129.668671,13.064779 129.254533,13.1752269 128.588603,13.3952354 C128.568478,13.3952354 128.164626,13.5203208 127.377049,13.7704918 L127.377049,13.7558541 C127.771061,8.7998965 128.204877,4.21475964 128.679392,0" id="Fill-42"></path>
                    <path d="M3.74151976,19.9273242 L7.65165054,19.9273242 C8.31475672,20.4760794 8.69725042,20.7902349 8.79781421,20.8693388 C8.63796609,23.2903707 8.46318711,25.4645983 8.27347726,27.3915697 C8.25591154,27.3915697 7.87956584,27.6962327 7.14487932,28.3060109 C6.97317434,28.3001346 6.85197083,28.2969705 6.78082963,28.2969705 L6.46069426,28.2969705 C6.29513729,28.2969705 6.06370884,28.2938063 5.76772634,28.28793 C5.97500192,26.3243448 6.16163776,24.1532814 6.32719474,21.7751917 L6.09664458,21.7751917 C5.1722482,21.7751917 4.34578076,21.7566587 3.61724224,21.7200449 L3.74151976,19.9273242 Z M2.03544855,19.8907104 C2.62741354,19.8970387 3.08368329,19.9002029 3.40381866,19.9002029 L3.40381866,19.9092433 C3.19654309,21.8787048 3.01298124,24.0497683 2.85313313,26.4215296 L2.84391112,26.4215296 L2.85313313,26.4215296 C3.64666484,26.4215296 4.54734748,26.4400626 5.55430276,26.4766764 L5.43880811,28.2693971 L1.52867733,28.2693971 C1.35697235,28.1292702 0.974917796,27.8182788 0.382513661,27.3364229 C0.536652914,25.0925839 0.708357893,22.9183562 0.898067742,20.8146441 C0.927490334,20.7961112 1.2770483,20.5126932 1.94674163,19.963938 C1.99987795,19.9155716 2.02930054,19.8907104 2.03544855,19.8907104 L2.03544855,19.8907104 Z" id="Fill-44"></path>
                    <path d="M10.7457984,19.8907104 L10.7544895,19.8907104 C12.2493455,19.896606 12.9998153,19.9029551 13.0054645,19.9088507 C12.8764028,21.1265206 12.8120892,21.7537226 12.8120892,21.7904568 L10.5611142,21.7904568 L10.5611142,21.7813866 C10.601962,21.3101915 10.6636683,20.6798149 10.7457984,19.8907104 M10.4820259,22.4054141 L12.7243099,22.4054141 C12.5365838,24.1613983 12.3605906,26.1282639 12.1963302,28.3060109 L11.5810058,28.3060109 L11.5810058,28.2969408 C11.6044715,28.2298215 11.6162044,28.1685979 11.6162044,28.1132699 C11.6162044,27.9663332 11.5340742,27.8837947 11.3702485,27.8656543 C11.2937674,27.8656543 10.9391737,27.9758569 10.3060327,28.1958084 C10.0831079,28.2633811 9.96317179,28.2969408 9.94535519,28.2969408 L9.94535519,28.2874171 C10.1039664,26.323726 10.2825669,24.3632095 10.4820259,22.4054141" id="Fill-46"></path>
                    <path d="M14.1971124,19.8907104 C14.5430151,19.8907104 15.2930504,19.896606 16.4480874,19.9088507 C16.1491162,22.3931693 15.87926,25.1922227 15.6389532,28.3060109 L15.0236287,28.3060109 L15.0236287,28.2969408 C15.0470945,28.2298215 15.0588274,28.1685979 15.0588274,28.1132699 C15.0588274,27.9663332 14.9766972,27.8837947 14.8124369,27.8656543 C14.7363904,27.8656543 14.3817967,27.9758569 13.7486556,28.1958084 C13.5257309,28.2633811 13.4057947,28.2969408 13.3879781,28.2969408 L13.3879781,28.2874171 C13.5930863,25.6262302 13.8512097,22.891575 14.1619138,20.0834514 L14.1971124,19.8907104 Z" id="Fill-48"></path>
                    <path d="M22.4943001,19.8907104 C22.682107,19.8907104 23.5065701,19.8970595 24.9672402,19.9093042 L24.9672402,19.9183744 C24.7610121,21.7968059 24.5700601,23.9745529 24.3948336,26.4525224 C25.2067164,26.4525224 26.128228,26.4679417 27.1584699,26.4983267 C27.1041048,27.3731443 27.0645665,27.9758569 27.0403044,28.3060109 L21.8032787,28.3060109 C21.9973757,25.3817892 22.2062996,22.7478129 22.4304997,20.4049888 C22.4668929,20.0929751 22.4884592,19.9215489 22.4943001,19.8907104" id="Fill-50"></path>
                    <path d="M28.6145187,19.8907104 C28.8023255,19.8907104 29.6267887,19.8970595 31.0874587,19.9093042 L31.0874587,19.9183744 C30.8812306,21.7968059 30.6902787,23.9745529 30.5150522,26.4525224 C31.326935,26.4525224 32.2484466,26.4679417 33.2786885,26.4983267 C33.2243234,27.3731443 33.1847851,27.9758569 33.160523,28.3060109 L27.9234973,28.3060109 C28.1175943,25.3817892 28.3265182,22.7478129 28.5507183,20.4049888 C28.5871115,20.0929751 28.6086778,19.9215489 28.6145187,19.8907104" id="Fill-52"></path>
                    <path d="M39.5666467,26.4525224 C40.2769058,26.4525224 41.118596,26.4679417 42.0917173,26.4983267 C42.0381713,27.3613531 41.9992287,27.9636121 41.9753322,28.3060109 C41.2172799,28.2511364 40.3994863,28.2234724 39.5219512,28.2234724 C38.6740656,28.2234724 37.8770709,28.2511364 37.1309669,28.3060109 C37.2141624,27.2234865 37.2650532,26.620774 37.2831969,26.4983267 L37.2920475,26.4983267 C38.145686,26.4679417 38.9037382,26.4525224 39.5666467,26.4525224 M39.3157327,19.8907104 C40.3366472,19.8907104 41.3845559,19.9061297 42.4590164,19.9369682 C42.4351198,20.2000031 42.3811313,20.8027156 42.2979358,21.7446524 C42.2917404,21.7446524 42.2890852,21.747827 42.2890852,21.7537226 L42.2709416,21.7446524 C41.2199351,21.6956735 40.2441586,21.6711841 39.342727,21.6711841 L39.1276579,21.6711841 C38.572284,21.6711841 37.9872606,21.6807078 37.3725878,21.6988481 L37.3637372,21.7169884 C37.1787601,23.6321541 37.0114841,25.8284949 36.8623518,28.3060109 L36.1007593,28.3060109 L36.1007593,28.2969408 C36.118903,28.2420663 36.1277536,28.1962619 36.1277536,28.1595277 L36.1277536,28.1137234 C36.1277536,27.9667867 36.0472133,27.8874227 35.8861328,27.875178 L35.8414373,27.875178 C35.7635522,27.875178 35.3878451,27.9881016 34.7129883,28.2144022 C34.6651952,28.2207514 34.5727066,28.2511364 34.4355226,28.3060109 C34.4355226,28.3001153 34.4324249,28.2969408 34.4262295,28.2969408 L34.4355226,28.2788004 C34.6143043,25.3668235 34.8085746,22.8947496 35.0174483,20.8639393 L36.1817422,19.9002341 C36.2290928,19.9002341 36.5875413,19.9034086 37.2562026,19.9093042 C38.2771171,19.8970595 38.9634796,19.8907104 39.3157327,19.8907104" id="Fill-54"></path>
                    <polygon id="路径-3" points="95.4754098 7.16393443 101.47541 12.1639344 99.4754098 14.1639344 93.4754098 9.16393443"></polygon>
                </g>
            </g>
        </g>
    </g>
</svg>